<?xml version="1.0" standalone="no"?>
<!DOCTYPE svg PUBLIC "-//W3C//DTD SVG 20010904//EN"
 "http://www.w3.org/TR/2001/REC-SVG-20010904/DTD/svg10.dtd">
<svg version="1.0" xmlns="http://www.w3.org/2000/svg"
 width="4096.000000pt" height="2868.000000pt" viewBox="0 0 4096.000000 2868.000000"
 preserveAspectRatio="xMidYMid meet">

<g transform="translate(0.000000,2868.000000) scale(0.100000,-0.100000)"
fill="#000000" stroke="none">
<path d="M38493 12871 c0 -28 4 -51 8 -51 13 0 17 75 4 89 -10 10 -13 3 -12
-38z"/>
<path d="M38520 12820 c0 -11 -7 -20 -15 -20 -11 0 -15 -12 -15 -45 0 -45 0
-45 -35 -45 -19 0 -35 -4 -35 -10 0 -5 -13 -10 -30 -10 -16 0 -30 5 -30 10 0
6 -28 10 -65 10 -36 0 -65 -4 -65 -9 0 -5 29 -13 65 -16 l65 -7 0 -49 0 -49
-35 0 c-19 0 -35 -4 -35 -10 0 -6 -38 -10 -95 -10 -78 0 -95 3 -95 15 0 12
-14 15 -65 15 l-65 0 0 -55 c0 -55 0 -55 -30 -55 -18 0 -33 -6 -36 -15 -4 -9
-19 -15 -35 -15 l-29 0 0 -65 0 -65 -35 0 c-19 0 -35 -4 -35 -10 0 -6 -27 -10
-60 -10 l-60 0 0 30 c0 27 3 30 30 30 28 0 30 3 30 35 0 24 -5 35 -15 35 -8 0
-15 -8 -15 -18 0 -9 -13 -23 -30 -30 -25 -11 -30 -20 -30 -47 0 -25 -5 -35
-20 -40 -17 -5 -20 -15 -20 -66 0 -56 -1 -59 -24 -59 -15 0 -26 -7 -29 -17 -4
-17 -5 -17 -6 0 -1 18 -31 25 -31 7 0 -5 -9 -19 -20 -30 l-20 -20 0 65 c0 51
-3 65 -15 65 -10 0 -15 -10 -15 -34 0 -29 -4 -34 -30 -40 -17 -3 -57 -3 -89 1
-33 3 -71 3 -85 -1 -24 -6 -26 -10 -26 -66 l0 -60 -104 0 c-59 0 -108 -4 -111
-10 -3 -5 1 -10 10 -10 9 0 22 -6 29 -13 11 -10 10 -15 -1 -26 -8 -7 -17 -11
-19 -8 -3 3 -19 1 -35 -3 -28 -8 -29 -7 -29 22 0 23 -4 29 -16 24 -9 -3 -18
-6 -20 -6 -2 0 -4 -9 -4 -19 0 -14 -5 -18 -21 -14 -11 3 -23 11 -25 18 -3 7
-14 11 -25 8 -14 -4 -19 0 -19 16 0 22 -15 27 -40 11 -9 -5 -19 -5 -27 2 -10
8 -13 6 -13 -9 0 -16 9 -22 39 -27 22 -3 41 -10 43 -15 1 -5 28 -11 58 -14 30
-2 64 -8 75 -14 11 -5 56 -17 100 -27 44 -9 103 -23 130 -31 28 -8 92 -24 143
-36 52 -12 106 -27 120 -35 15 -8 44 -14 64 -14 20 0 49 -5 65 -11 24 -9 26
-12 11 -20 -9 -5 -25 -8 -35 -7 -10 0 -33 0 -50 0 -32 -2 -33 -3 -33 -50 0
-42 -3 -50 -29 -65 -16 -9 -41 -17 -55 -17 -23 0 -26 -4 -26 -34 0 -19 -4 -38
-10 -41 -6 -4 -10 10 -10 34 l0 41 -45 0 -45 0 0 -38 c0 -46 -35 -82 -79 -82
-38 0 -91 -44 -91 -76 0 -26 -9 -28 -92 -24 -32 1 -38 -2 -38 -19 0 -12 -4
-21 -10 -21 -5 0 -19 -9 -30 -20 -17 -17 -21 -18 -26 -5 -4 9 -18 15 -35 15
-27 0 -29 -3 -29 -40 0 -44 -1 -44 -92 -40 -29 1 -38 -2 -38 -14 0 -9 -11 -18
-25 -22 -21 -5 -25 -12 -26 -48 -1 -22 -4 -31 -6 -18 -4 18 -11 22 -39 22 -31
0 -34 -2 -34 -31 l0 -31 -65 7 c-87 10 -195 -2 -195 -21 0 -8 5 -14 10 -14 6
0 10 -15 10 -34 0 -19 -4 -38 -10 -41 -6 -4 -10 9 -10 33 0 39 -1 39 -41 45
-63 8 -69 3 -69 -63 0 -33 5 -62 10 -65 16 -10 12 -21 -15 -33 -18 -8 -26 -8
-31 0 -4 7 -3 8 4 4 8 -5 12 0 12 14 0 17 -3 19 -18 11 -16 -9 -18 -6 -14 20
3 22 0 29 -12 29 -9 0 -16 5 -16 10 0 14 -27 12 -34 -2 -5 -10 -7 -10 -12 0
-3 6 -10 12 -16 12 -5 0 -15 6 -22 13 -7 6 -28 26 -47 42 -39 34 -266 234
-319 280 -19 16 -57 50 -84 75 -28 25 -56 50 -62 55 -45 40 -92 81 -174 155
-53 47 -122 108 -154 135 -32 28 -65 56 -73 64 -12 11 -16 12 -23 2 -5 -9 -10
-10 -14 -2 -4 6 -2 11 5 11 8 0 8 4 -1 15 -7 8 -21 15 -31 15 -12 0 -16 5 -13
15 4 11 2 13 -9 9 -10 -3 -20 3 -27 16 -8 16 -17 19 -33 14 -12 -3 -19 -3 -15
1 4 4 1 14 -7 21 -8 8 -11 22 -8 31 5 12 2 15 -10 10 -11 -4 -17 -1 -17 8 0 9
-6 12 -17 8 -11 -4 -12 -8 -5 -11 7 -2 12 -22 12 -48 0 -37 -3 -44 -20 -44
-13 0 -20 -7 -20 -20 0 -15 -7 -20 -25 -20 -21 0 -25 5 -25 30 0 20 -5 30 -15
30 -10 0 -15 -10 -15 -30 l0 -30 -67 0 c-92 0 -111 -7 -116 -39 l-4 -26 -2 26
c-1 29 -21 39 -81 39 -59 0 -79 -10 -82 -39 -2 -20 -9 -27 -30 -29 -24 -3 -28
-8 -28 -33 l0 -29 -64 0 c-35 0 -66 -4 -68 -9 -2 -6 -20 -5 -45 2 -35 9 -43
16 -43 34 0 13 9 32 20 43 11 11 20 31 20 44 0 14 5 28 10 31 6 3 10 13 10 22
0 19 29 81 52 112 10 13 18 32 18 43 0 10 11 36 25 56 14 20 25 45 25 54 0 10
4 18 9 18 5 0 11 18 15 41 4 22 14 52 24 66 12 20 13 28 4 31 -15 5 -16 52 -1
52 7 0 18 8 26 18 13 16 14 15 9 -8 -5 -24 -4 -24 9 -6 19 25 19 31 0 46 -10
9 -15 9 -15 1 0 -6 -6 -11 -14 -11 -7 0 -18 -6 -24 -13 -8 -10 -32 -11 -99 -5
-96 8 -183 1 -183 -14 0 -7 47 -8 130 -3 l130 7 0 -66 0 -66 -129 0 c-76 0
-132 -4 -136 -10 -3 -5 -18 -10 -33 -9 -15 0 -21 3 -14 6 6 2 12 20 12 38 0
35 -15 45 -72 45 -25 0 -28 -3 -28 -35 l0 -35 -60 0 -60 0 0 45 c0 45 0 45
-35 45 -35 0 -35 0 -35 -45 l0 -45 -65 0 c-37 0 -65 -4 -65 -10 0 -5 -13 -10
-30 -10 -16 0 -30 5 -30 10 0 6 -28 10 -65 10 l-65 0 0 60 0 60 30 0 c33 0 38
14 14 45 -16 21 -17 20 -45 -27 -6 -11 -22 -18 -39 -18 -20 0 -30 -5 -30 -15
0 -12 -14 -15 -65 -15 l-65 0 0 -45 c0 -43 -1 -45 -29 -45 -16 0 -31 -6 -35
-15 -3 -8 -17 -15 -31 -15 -23 0 -25 3 -25 50 l0 50 -35 0 c-32 0 -35 2 -35
30 0 22 -5 30 -18 30 -10 0 -23 5 -29 11 -8 8 -13 8 -17 0 -4 -6 -20 -11 -36
-11 -15 0 -30 -7 -34 -15 -3 -8 -17 -15 -31 -15 -27 0 -48 -31 -27 -38 7 -2
12 -18 12 -35 -1 -27 -2 -29 -11 -14 -6 10 -22 17 -39 17 -29 0 -30 1 -30 50
l0 50 -49 0 c-48 0 -49 0 -56 36 -3 20 -9 34 -12 31 -8 -9 49 -191 62 -199 7
-5 11 -16 8 -26 -5 -19 19 -123 57 -247 11 -38 25 -88 29 -110 5 -22 26 -98
46 -170 21 -71 41 -146 45 -165 4 -19 20 -80 34 -134 15 -55 24 -106 22 -113
-3 -8 -1 -11 4 -8 6 3 10 -3 10 -14 0 -10 3 -28 6 -38 5 -15 4 -16 -6 -3 -10
13 -11 12 -6 -3 3 -10 6 -24 6 -30 0 -7 4 -6 9 2 7 11 12 3 21 -30 6 -24 13
-52 16 -61 3 -10 1 -18 -5 -18 -6 0 -11 6 -11 13 0 8 -4 7 -11 -3 -8 -11 -12
-12 -16 -2 -2 6 -11 12 -19 12 -9 0 -12 -4 -9 -10 4 -6 -5 -10 -19 -10 -14 0
-26 5 -26 10 0 6 -28 10 -65 10 -37 0 -65 -4 -65 -10 0 -6 -50 -10 -130 -10
-125 0 -130 -1 -130 -21 0 -12 -8 -23 -20 -26 -20 -5 -29 -33 -10 -33 6 0 10
-5 10 -11 0 -5 -5 -7 -11 -3 -8 4 -8 1 -1 -12 14 -26 91 -104 103 -104 5 0 9
-6 9 -12 0 -7 16 -29 36 -48 20 -19 62 -64 93 -100 31 -35 85 -94 121 -131
116 -121 194 -204 265 -283 39 -44 82 -92 97 -108 34 -36 26 -59 -9 -26 -18
17 -22 18 -17 5 5 -15 -1 -17 -42 -18 l-49 -2 40 -6 c38 -6 37 -7 -27 -13 -71
-8 -268 1 -583 26 -279 22 -598 46 -694 51 -46 3 -168 12 -270 19 -285 23
-419 28 -396 16 16 -8 12 -9 -19 -6 -21 3 -49 15 -62 27 -12 11 -27 18 -34 14
-6 -4 -9 -1 -8 7 2 7 -6 13 -17 13 -11 0 -21 7 -23 16 -3 18 -75 73 -109 83
-13 4 -23 13 -23 20 0 6 -15 20 -32 31 -22 12 -29 14 -21 4 7 -9 10 -37 8 -74
-3 -43 -2 -53 4 -35 8 21 16 12 12 -12 0 -5 3 -8 9 -8 5 0 10 -4 10 -10 0 -6
-33 -10 -80 -10 -64 0 -80 3 -80 15 0 11 11 15 36 15 35 0 35 1 32 38 -3 34
-6 37 -35 40 -32 3 -33 2 -33 -32 0 -34 -2 -36 -35 -36 -46 0 -48 -27 -2 -33
l32 -4 -32 -1 c-31 -2 -33 -5 -33 -37 0 -32 -2 -35 -30 -35 -23 0 -30 4 -30
20 0 16 -7 20 -35 20 -31 0 -35 -3 -35 -26 0 -22 -3 -25 -22 -20 -13 3 -26 6
-29 6 -4 0 -9 9 -12 20 -4 17 -14 20 -66 20 l-61 0 0 -34 c0 -62 -5 -66 -86
-66 l-74 0 0 30 0 30 -114 0 -114 0 -7 -65 c-7 -59 -9 -65 -31 -65 -18 0 -23
6 -26 33 -2 24 -8 33 -25 35 -18 3 -23 10 -23 33 0 16 -4 29 -10 29 -5 0 -10
9 -10 20 0 16 -7 20 -35 20 -19 0 -35 -4 -35 -10 0 -5 -13 -10 -30 -10 -23 0
-30 4 -30 20 0 11 -4 20 -8 20 -4 0 -14 -9 -22 -20 -18 -25 -29 -25 -46 -2 -7
9 -14 12 -14 6 0 -5 9 -20 21 -32 11 -12 17 -27 14 -32 -6 -10 57 -199 100
-295 7 -16 39 -100 70 -185 32 -85 67 -182 80 -215 13 -33 36 -96 53 -140 45
-123 160 -427 209 -555 24 -63 52 -137 62 -165 10 -27 33 -88 51 -135 26 -71
30 -88 20 -105 -10 -17 -10 -18 1 -7 11 10 18 0 40 -55 15 -37 24 -73 22 -80
-3 -7 -1 -13 5 -13 8 0 52 -104 52 -123 0 -4 -11 -14 -24 -22 -18 -12 -29 -13
-43 -6 -10 5 -54 17 -98 26 -44 9 -91 22 -105 30 -14 7 -41 16 -60 20 -19 4
-62 15 -95 25 -33 10 -85 26 -115 34 -79 23 -232 71 -325 101 -44 15 -95 29
-113 32 -18 3 -35 9 -38 14 -3 5 -23 9 -45 9 -21 0 -39 5 -39 10 0 6 -9 10
-21 10 -11 0 -30 5 -41 11 -16 8 -19 8 -13 -1 4 -7 1 -16 -6 -21 -24 -14 4
-43 47 -50 l39 -6 -45 -3 c-25 -2 -74 -4 -110 -4 l-65 -1 -3 -32 c-3 -29 -7
-33 -33 -33 -26 0 -29 -3 -29 -30 0 -30 -1 -30 -55 -30 l-55 0 0 -35 0 -35
-80 0 -80 0 0 -34 c0 -19 6 -37 13 -39 6 -3 -16 -6 -50 -6 -34 -1 -63 3 -65 9
-1 5 -13 7 -25 4 -29 -8 -33 -60 -5 -67 9 -2 0 -3 -20 -1 -35 4 -37 3 -40 -28
-2 -25 -8 -33 -22 -33 -11 0 -21 -6 -24 -13 -5 -16 -77 -16 -91 2 -8 9 -27 12
-64 8 -62 -5 -64 -7 -47 -27 11 -14 8 -13 -23 2 -29 14 -35 22 -30 40 7 29
-18 53 -54 52 l-28 -1 33 -9 c22 -7 32 -16 32 -29 0 -11 -4 -20 -10 -20 -5 0
-10 4 -10 9 0 5 -12 14 -27 20 -49 19 -105 60 -97 72 2 4 -5 5 -16 2 -11 -3
-20 0 -20 6 0 6 -7 11 -15 11 -8 0 -15 5 -15 10 0 6 -7 10 -15 10 -9 0 -47 21
-86 48 -39 26 -76 50 -82 54 -7 4 -52 31 -100 60 -49 29 -106 64 -127 78 -53
34 -177 112 -204 128 -11 7 -31 11 -44 9 -16 -3 -22 0 -18 9 5 14 -29 44 -50
44 -7 0 -27 14 -45 31 -27 26 -35 29 -37 15 -2 -9 -7 -16 -12 -16 -4 0 -6 -18
-3 -39 l5 -40 -63 -3 -64 -3 -3 -62 -3 -62 -62 -3 -62 -3 -3 -62 -3 -63 -42 0
c-70 0 -87 -9 -87 -41 0 -29 0 -29 65 -29 l65 0 0 -30 c0 -20 -5 -30 -15 -30
-10 0 -15 -11 -15 -35 0 -33 -2 -35 -35 -35 -30 0 -35 -3 -35 -24 0 -34 -11
-60 -20 -46 -12 20 -40 -1 -40 -31 0 -26 -3 -29 -35 -29 -35 0 -35 0 -35 -45
0 -25 -4 -45 -10 -45 -5 0 -10 7 -10 16 0 13 -3 14 -14 5 -12 -10 -16 -8 -21
11 -4 13 -17 33 -29 46 -19 22 -20 24 -3 33 24 14 22 49 -2 49 -11 0 -23 -5
-26 -11 -10 -16 -34 21 -35 53 0 15 -7 34 -17 43 -13 14 -14 18 -3 25 11 7 10
11 -3 24 -8 9 -19 16 -24 16 -17 1 -71 78 -117 170 -27 52 -49 95 -50 96 -1 1
-13 4 -28 8 -24 5 -28 3 -28 -14 0 -16 -7 -20 -30 -20 l-30 0 0 -65 0 -65 -55
0 -55 0 0 -35 c0 -32 -2 -35 -30 -35 -27 0 -30 -3 -30 -30 0 -28 -3 -30 -35
-30 -33 0 -35 -2 -35 -35 0 -32 -2 -35 -30 -35 -27 0 -30 -3 -30 -30 0 -25 -4
-30 -23 -30 -17 0 -27 -9 -37 -35 -13 -32 -17 -35 -57 -35 l-43 0 0 -65 0 -65
-30 0 c-27 0 -30 -3 -30 -30 0 -27 -3 -30 -30 -30 -23 0 -30 4 -30 20 0 23 -8
25 -32 6 -24 -18 -23 -36 2 -36 16 0 20 -7 20 -30 0 -25 -4 -30 -25 -30 -19 0
-25 5 -25 21 0 15 -5 20 -22 17 -30 -4 -37 -38 -9 -38 12 0 21 -4 21 -10 0 -5
-13 -10 -30 -10 -23 0 -30 4 -30 20 0 16 -7 20 -35 20 -34 0 -35 -1 -35 -40 0
-36 -2 -40 -26 -40 -24 0 -84 -45 -84 -62 0 -5 9 -8 20 -8 16 0 20 -7 20 -30
0 -25 -4 -30 -25 -30 -20 0 -25 5 -25 25 0 30 -16 33 -25 5 -6 -19 2 -28 108
-122 18 -15 35 -28 39 -28 19 0 96 -68 106 -93 6 -16 15 -26 21 -23 5 4 40
-16 77 -44 50 -37 61 -50 45 -50 -17 0 -19 -3 -12 -17 5 -10 12 -26 15 -35 3
-10 12 -18 21 -18 12 0 14 4 5 19 -14 27 5 37 35 21 31 -17 40 -42 21 -56 -17
-12 -23 -94 -8 -94 5 0 4 -31 -1 -70 l-10 -70 -58 0 c-76 0 -89 -6 -89 -41 0
-28 1 -29 51 -29 l52 0 -7 -46 c-3 -26 -6 -55 -6 -65 0 -14 -7 -19 -29 -19
-21 0 -32 -6 -36 -20 -4 -14 -15 -20 -36 -20 -28 0 -29 -2 -29 -45 0 -43 -1
-45 -30 -45 -20 0 -30 5 -30 15 0 10 -11 15 -35 15 -24 0 -35 -5 -35 -15 0
-10 10 -15 30 -15 29 0 30 -2 30 -45 0 -45 0 -45 35 -45 28 0 35 -4 35 -20 0
-13 7 -20 20 -20 16 0 20 -7 20 -30 0 -30 -1 -30 -55 -30 l-55 0 0 -65 0 -64
-62 -3 -63 -3 -3 -62 -3 -63 -59 0 c-60 0 -60 0 -60 30 0 20 -5 30 -15 30 -10
0 -15 -10 -15 -30 0 -28 -2 -30 -39 -30 -59 0 -131 -12 -131 -21 0 -5 14 -9
30 -9 23 0 30 -4 30 -20 0 -11 -4 -20 -10 -20 -5 0 -10 -13 -10 -30 l0 -30
-117 0 c-149 0 -163 -4 -163 -41 0 -27 -3 -29 -39 -29 -22 0 -43 -5 -46 -10
-3 -6 -19 -10 -36 -10 -19 0 -29 -5 -29 -15 0 -10 10 -15 30 -15 17 0 30 -5
30 -10 0 -7 -45 -10 -127 -8 l-128 3 -3 34 -3 33 -57 -7 c-65 -8 -72 -11 -72
-31 0 -9 11 -14 35 -14 19 0 35 -4 35 -10 0 -5 4 -10 10 -10 15 0 50 -33 50
-47 0 -8 13 -13 35 -13 19 0 35 -4 35 -10 0 -5 13 -10 30 -10 23 0 31 -5 36
-25 5 -19 13 -25 35 -25 22 0 29 -5 29 -20 0 -16 7 -20 30 -20 24 0 30 -4 30
-21 0 -21 -2 -22 -105 -15 -125 9 -215 0 -215 -20 0 -11 -21 -14 -94 -14 -85
0 -94 2 -99 20 -4 17 -14 20 -71 20 -64 0 -66 -1 -66 -25 0 -21 -5 -25 -30
-25 -16 0 -30 5 -30 10 0 6 -40 10 -100 10 -95 0 -100 -1 -100 -21 l0 -21 258
6 c141 3 550 8 907 11 358 3 697 7 755 10 58 3 166 2 240 -3 85 -5 140 -5 148
1 7 6 50 11 95 12 71 3 75 2 34 -5 -27 -5 -51 -11 -54 -14 -13 -12 12 -26 47
-26 30 0 40 -5 45 -20 11 -36 -3 -60 -36 -60 -38 0 -69 -16 -69 -35 0 -12 -16
-15 -74 -15 -66 0 -75 -2 -89 -23 -26 -40 -6 -57 67 -57 51 0 66 -4 82 -21 25
-28 6 -39 -73 -39 -70 0 -93 6 -93 26 0 7 -9 18 -20 24 -12 7 -20 7 -20 1 0
-5 -15 -11 -32 -13 -21 -2 -33 -8 -33 -18 0 -11 13 -16 48 -18 33 -2 47 -7 47
-18 0 -7 -7 -14 -15 -14 -10 0 -15 -11 -15 -35 0 -32 2 -35 30 -35 27 0 30 -3
30 -30 0 -28 3 -30 35 -30 32 0 35 -2 35 -30 0 -28 -3 -30 -35 -30 -31 0 -35
-3 -35 -25 l0 -25 -125 0 c-77 0 -125 -4 -125 -10 0 -5 -13 -10 -30 -10 -28 0
-30 -3 -30 -36 l0 -37 -135 6 c-112 4 -135 3 -135 -9 0 -9 11 -14 30 -14 32 0
33 -3 30 -72 l-2 -38 66 0 c59 0 66 -2 66 -20 0 -16 -7 -20 -30 -20 -16 0 -30
-4 -30 -10 0 -6 -38 -10 -95 -10 l-95 0 0 35 0 35 -65 0 -65 0 0 80 0 80 -130
0 c-123 0 -130 -1 -130 -20 0 -18 7 -20 60 -20 l60 0 0 -65 0 -65 -60 0 -60 0
0 -30 0 -30 -65 0 -64 0 -7 50 -7 50 -93 0 c-87 0 -94 -1 -94 -20 0 -19 -7
-20 -130 -20 l-130 0 0 -60 c0 -60 0 -60 -29 -60 -17 0 -33 -5 -36 -10 -3 -5
-33 -10 -66 -10 l-59 0 0 40 c0 33 -3 40 -20 40 -15 0 -20 -7 -20 -30 0 -25
-4 -30 -32 -35 -18 -3 -69 -4 -113 -1 -44 2 -108 4 -142 5 -60 1 -63 2 -63 26
0 24 -2 25 -70 25 -68 0 -70 -1 -70 -25 0 -24 -3 -25 -60 -25 l-60 0 0 60 0
60 -80 0 -80 0 0 -30 0 -30 75 0 75 0 0 -30 0 -30 -255 0 -255 0 0 30 0 30
-64 0 c-63 0 -65 1 -71 29 l-6 28 -109 8 c-122 7 -319 4 -326 -6 -2 -4 3 -9
11 -13 8 -3 15 -15 15 -26 0 -11 7 -20 15 -20 10 0 15 -10 15 -27 1 -18 11
-37 30 -53 17 -13 30 -30 30 -37 0 -7 7 -13 15 -13 8 0 15 -5 15 -11 0 -7 10
-22 23 -35 50 -53 57 -65 57 -104 0 -22 5 -40 10 -40 6 0 10 6 10 13 1 7 6 5
14 -6 7 -9 21 -17 30 -17 9 0 16 -7 16 -15 0 -13 -19 -15 -127 -13 l-128 3 -3
48 c-3 45 -5 47 -33 47 -26 0 -29 3 -29 34 0 31 -3 34 -35 38 l-35 4 0 -68 0
-68 -60 0 c-53 0 -60 2 -60 20 0 16 -7 20 -35 20 -24 0 -35 -5 -35 -15 0 -13
-24 -15 -160 -15 l-160 0 0 55 c0 30 -4 55 -10 55 -6 0 -11 -40 -12 -97 -1
-87 -2 -91 -7 -38 -6 56 -7 52 -18 -70 -6 -71 -14 -197 -17 -280 -3 -90 -9
-151 -16 -153 -5 -2 -10 -19 -10 -38 0 -19 -4 -34 -10 -34 -5 0 -10 -13 -10
-30 0 -16 -4 -30 -10 -30 -6 0 -10 27 -10 60 l0 60 -65 0 -65 0 0 39 c0 21 -7
55 -15 74 -8 20 -15 48 -15 62 0 18 -5 25 -20 25 -13 0 -20 7 -20 20 0 28 -56
28 -65 0 -5 -17 -15 -20 -66 -20 -44 0 -61 -4 -65 -15 -5 -11 -22 -15 -65 -15
-33 0 -59 -4 -59 -10 0 -5 -16 -10 -35 -10 -19 0 -35 -4 -35 -10 0 -5 -16 -10
-35 -10 -19 0 -35 -4 -35 -10 0 -5 -13 -10 -30 -10 -16 0 -30 -4 -30 -10 0 -5
-13 -10 -30 -10 -16 0 -30 -4 -30 -10 0 -5 14 -10 30 -10 27 0 30 -3 30 -30
l0 -29 -97 -3 -98 -3 -3 -63 -3 -62 -39 0 c-38 0 -40 2 -40 30 0 17 -4 30 -10
30 -5 0 -7 -39 -3 -100 4 -72 3 -100 -5 -100 -8 0 -12 -21 -12 -60 l0 -59 -72
-3 -73 -3 -3 -31 c-3 -30 -5 -32 -65 -40 -57 -8 -62 -11 -65 -36 -3 -24 0 -27
35 -31 l38 -4 -37 -1 c-33 -2 -38 -5 -38 -27 0 -25 0 -25 -95 -25 l-95 0 0
-34 c0 -32 3 -35 33 -39 17 -2 4 -5 -30 -5 l-63 -2 -1 43 c-1 23 -3 34 -6 25
-4 -15 -16 -18 -63 -18 -54 0 -70 -8 -70 -36 0 -2 29 -4 65 -4 l65 0 0 -30 c0
-30 0 -30 -59 -30 -38 0 -61 4 -64 13 -3 6 -6 -3 -6 -20 -1 -30 -4 -33 -31
-33 -16 0 -30 -4 -30 -10 0 -5 14 -10 30 -10 17 0 30 -4 30 -10 0 -6 -28 -10
-65 -10 l-65 0 0 -45 0 -45 -60 0 c-53 0 -60 2 -60 20 0 16 -7 20 -35 20 -32
0 -35 -2 -35 -30 0 -27 -3 -30 -30 -30 -28 0 -30 -3 -30 -35 l0 -35 -64 0
c-60 0 -64 -2 -70 -25 -5 -20 -13 -25 -36 -25 l-30 0 0 -74 0 -75 -32 -3 c-28
-2 -34 -8 -36 -31 -3 -26 -5 -27 -68 -27 l-64 0 0 -30 c0 -27 -3 -30 -30 -30
l-30 0 0 -65 0 -65 -47 0 c-27 0 -72 -3 -100 -6 -50 -6 -53 -8 -53 -35 0 -26
-4 -29 -30 -29 -27 0 -30 -3 -30 -30 l0 -30 -67 -2 c-38 0 -53 -3 -35 -5 l32
-4 0 -60 c0 -59 0 -59 -30 -59 -20 0 -30 -5 -30 -15 0 -10 -11 -15 -35 -15
-19 0 -35 -4 -35 -10 0 -5 -13 -10 -30 -10 -16 0 -30 -4 -30 -9 0 -5 -29 -12
-65 -16 -55 -6 -65 -10 -65 -26 0 -15 -7 -19 -35 -19 -34 0 -35 -1 -35 -36 l0
-37 -95 7 c-62 4 -95 3 -95 -4 0 -5 14 -10 30 -10 27 0 30 -3 30 -32 l0 -31
-95 6 c-80 5 -95 4 -95 -8 0 -10 10 -15 29 -15 30 0 45 -18 31 -40 -5 -9 -20
-11 -45 -7 -57 9 -205 -4 -205 -18 0 -9 39 -14 143 -19 266 -11 362 -18 372
-27 5 -5 51 -9 102 -9 55 0 93 -4 93 -10 0 -5 14 -10 30 -10 l30 0 0 -85 0
-85 -30 0 c-28 0 -30 -3 -30 -35 0 -33 -2 -35 -35 -35 l-35 0 0 -60 c0 -41 -4
-60 -12 -60 -7 -1 -26 -7 -43 -15 -16 -8 -21 -12 -9 -10 26 7 56 -4 48 -16 -3
-5 -20 -6 -37 -3 -18 3 -72 6 -121 6 -55 0 -83 4 -75 9 9 5 -12 9 -55 9 -63 0
-275 27 -621 79 -71 11 -195 30 -275 41 -80 12 -215 32 -300 45 -85 13 -173
26 -195 29 -22 2 -119 16 -215 31 -96 15 -218 33 -270 40 -139 19 -302 44
-405 61 -49 8 -153 23 -230 35 -513 75 -525 77 -519 93 3 7 22 13 42 14 29 0
33 -1 17 -8 -19 -8 -19 -9 3 -9 12 -1 22 4 22 10 0 6 9 9 20 6 11 -3 20 -1 20
4 0 5 -9 9 -21 9 -31 0 -20 31 16 43 16 6 35 16 42 23 7 7 37 24 65 39 29 14
67 34 83 45 57 36 80 50 98 56 9 3 17 10 17 15 0 5 7 9 16 9 8 0 13 4 10 9 -4
5 3 7 14 4 16 -4 20 -1 18 20 -2 23 -7 26 -68 33 -36 4 -55 10 -42 12 18 3 22
10 22 38 0 30 -3 34 -26 34 -23 0 -25 3 -19 30 6 27 4 30 -17 29 -13 0 -17 -3
-10 -6 6 -2 12 -9 12 -14 0 -6 -5 -7 -12 -3 -8 5 -9 0 -5 -15 4 -18 1 -21 -24
-19 -24 2 -28 6 -23 23 3 11 10 24 15 29 15 16 10 29 -6 16 -10 -8 -15 -9 -15
-2 0 15 45 62 59 62 6 0 11 5 11 11 0 5 -5 7 -10 4 -6 -3 -10 -1 -10 4 0 6 5
11 10 11 6 0 10 7 10 15 0 8 5 15 10 15 6 0 10 7 10 15 0 9 6 12 17 9 15 -5
16 -4 3 5 -13 10 -12 14 6 29 11 10 19 22 17 28 -2 5 48 95 111 199 246 408
378 627 486 805 62 102 120 197 129 212 30 50 182 303 191 318 49 78 84 148
81 160 -1 8 0 12 4 8 4 -4 17 7 29 25 70 104 107 171 102 183 -3 8 -2 13 3 9
5 -3 16 9 25 26 13 26 13 29 1 19 -12 -10 -15 -9 -15 6 -1 16 -3 15 -15 -6
l-14 -25 -1 28 c0 27 2 28 35 21 23 -4 35 -2 35 5 0 6 -6 11 -14 11 -21 0 -37
55 -26 86 14 36 12 44 -10 44 -16 0 -20 -7 -20 -35 0 -19 -4 -35 -10 -35 -5 0
-10 -13 -10 -29 0 -34 -11 -40 -61 -34 -37 5 -37 6 -44 61 -8 64 -15 72 -67
72 -35 0 -38 2 -38 30 0 17 -4 30 -10 30 -5 0 -10 16 -10 35 0 33 -2 35 -35
35 l-35 0 0 65 0 65 -30 0 c-27 0 -30 3 -30 30 0 28 -2 30 -40 30 -39 0 -40 1
-40 35 0 31 -3 35 -25 35 -20 0 -25 5 -25 25 0 22 -4 25 -35 25 -28 0 -35 4
-35 19 0 14 -9 20 -37 23 -21 3 -39 1 -41 -4 -2 -4 -8 -8 -14 -8 -6 0 -3 9 7
20 27 30 5 24 -35 -10 -19 -16 -40 -34 -46 -39 -6 -5 -25 -16 -43 -25 -18 -10
-29 -21 -25 -28 4 -7 3 -8 -4 -4 -6 4 -25 -3 -42 -15 -33 -25 -40 -42 -12 -32
9 3 14 2 9 -2 -4 -5 -16 -9 -28 -10 -23 -2 -147 -85 -263 -176 -40 -31 -128
-96 -196 -144 -69 -48 -151 -108 -183 -132 -61 -46 -72 -50 -81 -30 -3 6 -4 3
-3 -7 1 -12 -7 -25 -20 -31 -13 -7 -20 -15 -16 -18 3 -4 -1 -7 -10 -7 -9 0
-19 4 -22 10 -3 5 -20 10 -37 10 -23 0 -28 -3 -21 -12 7 -9 -1 -24 -28 -51
-26 -26 -40 -34 -45 -25 -4 6 -3 13 2 15 6 2 8 19 6 38 -4 32 -7 35 -38 35
l-34 0 0 100 0 100 -30 0 -30 0 0 65 0 65 -35 0 c-32 0 -35 2 -35 30 0 27 -3
30 -30 30 -26 0 -30 4 -30 26 0 34 -45 91 -78 99 -42 9 -55 39 -53 122 2 66 0
73 -17 73 -17 0 -20 10 -25 97 -3 55 -10 99 -16 101 -6 2 -11 10 -11 17 0 7
-14 16 -30 20 -33 7 -39 19 -15 29 24 9 17 129 -8 134 -15 3 -17 -5 -17 -62
l0 -66 -60 0 -60 0 0 125 c0 112 -2 125 -17 126 -86 7 -117 6 -173 0 -71 -9
-80 -5 -80 42 0 23 -4 27 -30 27 -28 0 -30 3 -30 35 l0 35 -75 0 -75 0 0 95
c0 57 4 95 10 95 6 0 10 14 10 30 0 26 -3 30 -29 30 -55 0 -61 7 -61 70 0 33
-4 62 -10 65 -5 3 -10 19 -10 36 l0 29 -65 0 -65 0 0 35 c0 34 -1 35 -40 35
-38 0 -40 2 -40 30 0 28 -3 30 -35 30 -32 0 -35 2 -35 30 l0 30 80 0 c65 0 80
3 80 15 0 9 -7 18 -15 21 -17 7 -21 34 -5 34 6 0 10 13 10 29 0 28 -3 30 -42
33 -40 3 -43 5 -46 36 -3 28 -7 32 -33 32 -16 0 -29 5 -29 10 0 6 -14 10 -30
10 -18 0 -33 6 -36 15 -5 12 -9 11 -24 -7 -10 -12 -15 -28 -13 -36 6 -14 -29
-52 -47 -52 -5 0 -10 14 -10 30 0 20 -5 30 -15 30 -10 0 -15 10 -15 30 0 25 4
30 25 30 14 0 25 -4 25 -10 0 -5 5 -10 10 -10 21 0 9 19 -22 34 -21 11 -35 13
-42 6 -5 -5 -36 -10 -68 -10 l-58 0 0 60 0 60 30 0 c40 0 38 21 -5 41 -35 16
-35 16 -35 -7 0 -20 -5 -24 -30 -24 -27 0 -30 3 -30 33 0 25 -9 42 -38 70 -21
20 -43 37 -50 37 -7 0 -12 7 -12 15 0 18 0 18 -56 4 -24 -6 -44 -15 -44 -20 0
-4 -15 -13 -33 -18 -67 -21 -198 -69 -204 -75 -18 -17 -28 -3 -25 34 4 40 4
40 -31 40 -33 0 -36 -3 -40 -32 l-4 -33 -1 32 c-2 28 -6 33 -37 39 -30 5 -35
10 -35 35 0 16 5 29 10 29 6 0 10 13 10 30 0 29 -1 29 -62 32 l-63 3 -3 63 -3
62 -44 0 -45 0 0 65 0 64 -83 3 -82 3 -3 62 -3 63 -64 0 c-52 0 -69 4 -85 20
-11 11 -23 20 -26 20 -4 0 -12 8 -19 17 -11 15 -8 22 18 50 17 17 34 30 39 27
4 -3 8 0 8 7 0 12 233 245 683 685 130 127 237 234 237 237 0 3 -30 -8 -67
-24 -38 -17 -147 -64 -243 -106 -96 -41 -188 -81 -205 -88 -16 -8 -59 -26 -95
-40 -66 -27 -128 -54 -188 -81 -18 -8 -37 -12 -44 -8 -6 4 -8 3 -4 -4 10 -17
-52 -25 -85 -12 -16 7 -32 10 -36 6 -3 -3 1 -6 10 -6 9 0 17 -4 17 -10 0 -5
-5 -10 -12 -10 -6 0 -8 -3 -5 -6 4 -4 13 -1 22 6 9 8 15 8 15 2 0 -12 -25 -22
-71 -27 -16 -2 -35 -7 -41 -11 -7 -4 -8 -3 -4 4 4 7 2 12 -3 12 -6 0 -11 21
-11 50 l0 50 -60 0 c-47 0 -60 3 -60 15 0 10 10 15 31 15 17 0 28 4 24 10 -8
13 -65 13 -65 0 0 -6 -27 -10 -60 -10 l-60 0 0 50 0 50 -35 0 c-24 0 -35 5
-35 15 0 10 10 15 30 15 17 0 30 5 30 10 0 6 -13 10 -30 10 -16 0 -30 -4 -30
-10 0 -5 -16 -10 -35 -10 -32 0 -35 2 -35 30 0 30 0 30 -59 30 l-60 0 -3 33
c-3 32 -3 32 -65 35 -62 3 -63 3 -63 32 0 28 -3 30 -35 30 l-35 0 0 49 c0 53
-17 81 -51 81 -14 0 -19 -7 -19 -30 0 -27 -3 -30 -30 -30 -27 0 -30 3 -30 30
0 21 5 30 16 30 21 0 14 34 -9 38 -12 2 -17 -3 -17 -17 0 -16 -6 -21 -25 -21
-18 0 -25 5 -25 20 0 16 -7 20 -34 20 -19 0 -36 5 -38 11 -2 6 -19 14 -38 19
l-35 8 33 1 c67 2 71 44 5 49 -27 2 -33 -1 -33 -17 0 -18 -3 -19 -31 -9 -19 6
-28 15 -25 24 6 15 -22 26 -74 30 -19 1 -71 9 -115 17 -97 19 -262 45 -330 52
-27 3 -102 14 -165 25 -63 10 -173 26 -245 35 -71 9 -133 19 -137 21 -4 3 -4
13 1 22 36 68 61 124 61 137 0 8 4 15 9 15 5 0 11 10 14 22 5 18 1 16 -23 -11
-24 -26 -30 -29 -31 -14 0 14 -2 15 -6 3 -11 -26 -36 -46 -41 -32 -2 6 -10 12
-18 12 -10 0 -14 14 -14 50 0 49 0 50 -31 50 -22 0 -32 -5 -36 -19 -3 -14 -15
-21 -37 -23 -23 -2 -30 -7 -28 -20 2 -10 -1 -18 -6 -18 -14 0 -52 49 -52 68 0
10 -5 23 -12 30 -17 17 -58 15 -58 -3 0 -8 -4 -15 -9 -15 -13 0 -23 17 -14 23
5 2 2 2 -6 0 -8 -2 -22 5 -32 15 -13 15 -15 22 -6 32 9 9 8 11 -8 8 -14 -2
-20 -11 -19 -28 1 -23 1 -23 -15 -4 -9 10 -23 20 -31 22 -8 2 -24 11 -35 21
-11 10 -37 28 -58 40 -21 13 -43 28 -50 35 -6 6 -33 24 -59 39 -27 15 -48 32
-48 37 0 5 -10 12 -22 16 -12 3 -50 26 -84 50 -35 24 -68 44 -73 44 -6 0 -11
3 -11 8 0 4 -44 36 -97 72 -54 36 -102 69 -108 73 -5 4 -41 30 -80 57 -73 53
-90 57 -172 41 -26 -6 -122 -21 -213 -36 -91 -14 -217 -34 -280 -45 -63 -10
-176 -29 -250 -40 -74 -12 -187 -30 -250 -41 -63 -10 -187 -30 -275 -44 -201
-32 -409 -68 -414 -72 -4 -3 109 -135 134 -158 6 -5 41 -46 79 -90 49 -58 63
-81 52 -83 -20 -4 -21 -32 -1 -32 8 0 15 5 15 10 0 6 5 10 10 10 6 0 9 -3 9
-7 -4 -22 3 -33 19 -33 16 -1 16 -1 -1 -11 -10 -6 -25 -8 -33 -5 -18 7 -18 -1
0 -20 15 -14 56 -15 67 -2 3 5 14 2 24 -6 18 -13 12 -15 -53 -18 -70 -3 -73
-2 -68 18 7 27 -9 34 -75 34 l-49 0 -6 39 c-6 37 -8 39 -51 45 -84 11 -83 12
-83 -44 l0 -50 -95 0 c-78 0 -95 3 -95 15 0 10 -11 15 -35 15 -31 0 -35 -3
-35 -25 0 -24 -2 -25 -70 -25 -38 0 -70 4 -70 9 0 5 4 11 10 13 5 2 11 16 12
31 1 16 10 33 20 38 10 5 18 14 18 20 0 14 -40 -9 -73 -42 -15 -16 -31 -29
-35 -29 -4 0 -16 -7 -27 -16 -17 -13 -18 -16 -5 -25 13 -9 13 -10 0 -6 -21 6
-52 -12 -44 -25 4 -6 3 -8 -3 -5 -5 4 -19 -3 -31 -13 -12 -11 -24 -20 -28 -20
-5 0 -26 -16 -129 -102 -11 -9 -61 -49 -111 -90 -50 -40 -135 -109 -189 -153
-54 -44 -112 -91 -130 -105 -33 -26 -335 -273 -415 -340 -25 -21 -97 -79 -160
-131 -120 -96 -142 -115 -300 -245 -53 -44 -111 -90 -129 -104 -59 -45 -126
-101 -143 -122 -17 -19 -16 -21 15 -50 21 -20 28 -32 19 -35 -6 -3 -10 -9 -6
-14 3 -5 1 -9 -3 -9 -5 0 -17 16 -27 35 -11 19 -23 35 -28 35 -13 0 -77 -34
-233 -123 -77 -44 -162 -92 -190 -107 -27 -15 -88 -48 -135 -75 -138 -77 -282
-156 -325 -178 -22 -12 -42 -23 -45 -26 -3 -4 -32 -19 -65 -36 -33 -16 -66
-36 -73 -42 -7 -7 -18 -13 -24 -13 -6 0 -19 -6 -27 -14 -9 -7 -59 -35 -111
-63 -52 -27 -108 -58 -125 -68 -16 -11 -26 -14 -22 -7 15 23 -3 12 -39 -23
-19 -19 -38 -34 -42 -34 -34 5 -72 -3 -72 -16 0 -14 -38 -41 -52 -37 -4 1 -33
3 -65 5 -32 2 -48 2 -35 0 22 -4 32 -23 12 -23 -5 0 -10 -7 -10 -15 0 -8 -7
-15 -15 -15 -8 0 -15 5 -15 10 0 6 -13 10 -30 10 -16 0 -30 5 -30 10 0 6 -16
10 -35 10 -30 0 -35 3 -35 24 0 20 -6 24 -46 30 -69 9 -84 8 -84 -9 0 -12 -14
-15 -65 -15 -63 0 -65 -1 -65 -25 0 -24 -2 -25 -65 -25 l-65 0 0 35 c0 31 -3
35 -26 35 -14 0 -37 9 -51 20 -14 11 -21 20 -16 20 5 0 7 16 5 35 -3 24 4 53
22 90 14 31 26 62 26 69 0 7 9 38 21 67 35 89 46 119 94 249 73 198 136 362
151 397 8 17 14 36 14 42 0 6 4 19 9 29 19 33 81 213 81 232 0 10 5 22 10 25
6 3 10 19 10 36 0 16 4 29 9 29 13 0 20 25 14 49 -7 29 -49 22 -46 -8 2 -11
-2 -21 -7 -21 -6 0 -10 -9 -10 -21 0 -11 -4 -17 -10 -14 -5 3 -10 24 -10 46 0
28 -4 39 -15 39 -10 0 -15 10 -15 30 0 35 -23 41 -40 11 -17 -33 -12 -51 15
-51 24 0 25 -3 25 -59 0 -33 3 -66 6 -75 5 -14 -4 -16 -65 -16 -56 0 -71 3
-71 15 0 12 -14 15 -65 15 l-65 0 0 40 c0 37 1 39 20 28 25 -16 38 -3 22 22
-15 25 -15 30 2 30 8 0 17 9 21 20 8 25 68 62 89 54 9 -3 16 -1 16 5 0 24 102
113 135 118 23 4 32 10 28 19 -3 8 7 21 26 31 17 10 31 24 31 31 0 6 4 12 10
12 14 0 137 83 144 97 3 6 2 28 -1 48 -5 29 -9 34 -24 30 -35 -11 -116 -7
-145 8 -16 8 -48 18 -71 22 -41 6 -56 19 -33 27 6 2 -6 4 -28 4 -21 1 -85 16
-143 33 -187 58 -199 61 -242 57 -23 -2 -30 -1 -14 1 15 2 27 9 27 15 0 7 -22
8 -66 3 -58 -6 -65 -5 -62 10 4 22 -64 48 -107 41 -16 -2 -24 -2 -17 1 6 2 10
9 6 14 -3 5 -14 4 -27 -3 -13 -7 -54 -11 -99 -9 -70 2 -78 0 -78 -16 0 -20 53
-50 58 -33 2 5 33 10 68 10 55 0 64 -3 64 -18 0 -10 5 -23 12 -30 9 -9 9 -12
0 -12 -8 0 -12 -26 -12 -85 l0 -85 -65 0 -65 0 0 -74 0 -75 -32 -3 -33 -3 0
-65 0 -65 63 -3 62 -3 0 -59 0 -60 -60 0 -60 0 0 30 c0 28 -3 30 -35 30 -32 0
-35 -2 -35 -29 0 -25 -5 -31 -30 -36 -29 -6 -30 -8 -30 -65 0 -63 6 -70 61
-70 29 0 29 0 29 -60 l0 -60 -80 0 -80 0 0 -80 0 -80 -31 0 c-22 0 -32 -5 -36
-20 -7 -25 -63 -29 -63 -5 0 12 -14 15 -65 15 l-65 0 0 -30 0 -30 -66 0 -66 0
7 33 c4 17 15 50 25 72 31 70 58 139 68 175 6 19 18 54 26 78 9 23 14 55 11
70 -4 23 -4 24 4 7 5 -11 10 -14 10 -7 1 6 12 35 26 64 14 28 25 56 25 62 0 9
49 140 75 201 7 17 27 71 45 120 18 50 38 104 46 120 7 17 29 81 50 143 20 62
42 119 50 127 11 11 11 14 -1 19 -15 5 -106 -1 -155 -10 -14 -3 -88 -10 -165
-15 -77 -5 -174 -14 -215 -19 -41 -6 -90 -10 -109 -10 -18 1 -47 -4 -65 -9
-17 -6 -85 -13 -151 -16 -69 -4 -122 -11 -126 -17 -5 -7 -28 -9 -66 -5 -34 4
-64 2 -73 -4 -11 -8 -9 -9 10 -4 18 4 21 3 11 -3 -12 -9 -12 -11 0 -14 8 -3 3
-4 -11 -2 -102 12 -133 13 -115 5 16 -8 17 -10 3 -10 -9 -1 -19 -7 -21 -13 -4
-10 -6 -10 -6 0 -1 8 -18 12 -49 12 -26 0 -53 5 -60 12 -9 9 -12 -15 -12 -109
l0 -122 33 -3 c44 -4 44 -32 0 -36 l-33 -3 0 -170 0 -169 65 0 c51 0 65 -3 65
-15 0 -10 -11 -15 -35 -15 -24 0 -35 -5 -35 -15 0 -10 -10 -15 -30 -15 l-30 0
0 -4130 0 -4130 20480 0 20480 0 0 5560 0 5560 -65 0 -65 0 0 30 0 30 65 0
c58 0 65 2 65 20 0 18 -7 20 -65 20 -58 0 -65 -2 -65 -20 0 -18 -7 -20 -65
-20 l-65 0 0 30 0 30 65 0 65 0 0 30 0 30 -65 0 c-63 0 -65 -1 -65 -25 0 -25
0 -25 -95 -25 l-95 0 0 30 0 30 95 0 c88 0 95 1 95 20 0 19 -7 20 -130 20
-123 0 -130 -1 -130 -20 0 -16 -7 -20 -30 -20 -27 0 -30 3 -30 30 0 27 3 30
30 30 20 0 30 5 30 15 0 13 -46 15 -357 15 -417 0 -553 7 -553 27 0 8 -11 13
-29 13 -20 0 -30 6 -34 20 -4 15 -14 20 -36 20 -24 0 -31 -4 -31 -20 0 -16 7
-20 30 -20 20 0 30 -5 30 -15 0 -10 -10 -15 -30 -15 -27 0 -30 -3 -30 -30 l0
-30 -64 0 c-43 0 -66 -4 -69 -12 -3 -10 -13 -9 -41 5 -30 14 -36 21 -31 37 5
17 2 20 -24 20 -23 0 -31 5 -31 18 0 10 -12 30 -27 44 -16 14 -44 44 -63 67
-68 81 -82 91 -127 91 -24 0 -43 4 -43 9 0 5 10 7 21 4 19 -5 21 -3 16 23 -3
16 -10 49 -15 74 -13 68 -62 232 -78 262 -8 14 -14 36 -14 47 0 12 -6 31 -12
44 -7 12 -14 23 -14 25 -1 1 -13 -3 -28 -9 -36 -17 -37 -66 -1 -75 28 -7 34
-38 10 -48 -9 -3 -15 -19 -15 -41 0 -33 -2 -35 -34 -35 -33 0 -35 2 -42 45 -3
25 -4 51 -1 59 3 7 -1 26 -8 40 -9 16 -12 39 -8 57 4 19 0 35 -10 47 -8 9 -18
44 -21 77 -4 33 -13 101 -21 150 -8 50 -19 126 -25 170 -5 44 -12 96 -15 115
-4 19 -11 65 -16 103 -6 37 -15 67 -20 67 -5 0 -9 -9 -9 -20z m-5500 -490 c0
-25 -4 -30 -25 -30 -21 0 -25 5 -25 30 0 25 4 30 25 30 21 0 25 -5 25 -30z
m-60 -65 c0 -21 -5 -25 -30 -25 -25 0 -30 4 -30 25 0 21 5 25 30 25 25 0 30
-4 30 -25z m4310 -245 c0 -5 -18 -10 -40 -10 -22 0 -40 5 -40 10 0 6 18 10 40
10 22 0 40 -4 40 -10z m-483 -6 c-3 -3 -12 -4 -19 -1 -8 3 -5 6 6 6 11 1 17
-2 13 -5z m-1857 -83 c0 -5 12 -12 28 -14 23 -3 21 -4 -9 -6 -26 -1 -36 3 -36
14 0 8 4 15 9 15 4 0 8 -4 8 -9z m90 -40 c0 -5 -9 -11 -20 -14 -13 -3 -20 0
-20 9 0 8 9 14 20 14 11 0 20 -4 20 -9z m2507 -168 c-3 -10 -5 -2 -5 17 0 19
2 27 5 18 2 -10 2 -26 0 -35z m1313 -173 c0 -29 -2 -30 -45 -30 -25 0 -45 -4
-45 -9 0 -5 -9 -11 -20 -14 -28 -7 -27 28 3 59 16 18 33 24 65 24 40 0 42 -1
42 -30z m-96 -96 c9 -24 7 -34 -6 -31 -24 4 -35 21 -24 34 15 17 23 16 30 -3z
m1566 -104 l0 -30 -195 0 c-188 0 -195 1 -195 20 0 16 -7 20 -30 20 -16 0 -30
5 -30 10 0 6 82 10 225 10 l225 0 0 -30z m-3563 -147 c-3 -10 -5 -2 -5 17 0
19 2 27 5 18 2 -10 2 -26 0 -35z m-5837 -783 c0 -5 -2 -10 -4 -10 -3 0 -8 5
-11 10 -3 6 -1 10 4 10 6 0 11 -4 11 -10z m-24330 -1250 c0 -5 -16 -10 -35
-10 -19 0 -35 5 -35 10 0 6 16 10 35 10 19 0 35 -4 35 -10z m153 -7 c-18 -2
-48 -2 -65 0 -18 2 -4 4 32 4 36 0 50 -2 33 -4z m2830 0 c-7 -2 -19 -2 -25 0
-7 3 -2 5 12 5 14 0 19 -2 13 -5z m-8946 -210 c-20 -2 -52 -2 -70 0 -17 2 0 4
38 4 39 0 53 -2 32 -4z m260 -30 c-20 -2 -52 -2 -70 0 -17 2 0 4 38 4 39 0 53
-2 32 -4z m893 -3 c0 -5 -2 -10 -4 -10 -3 0 -8 5 -11 10 -3 6 -1 10 4 10 6 0
11 -4 11 -10z m10 -100 c0 -16 -4 -30 -10 -30 -5 0 -10 14 -10 30 0 17 5 30
10 30 6 0 10 -13 10 -30z m-1590 0 c0 -5 -13 -10 -30 -10 -16 0 -30 5 -30 10
0 6 14 10 30 10 17 0 30 -4 30 -10z m390 -20 c0 -5 -13 -10 -30 -10 -16 0 -30
5 -30 10 0 6 14 10 30 10 17 0 30 -4 30 -10z m-320 -30 c0 -6 -28 -10 -65 -10
-37 0 -65 4 -65 10 0 6 28 10 65 10 37 0 65 -4 65 -10z m98 -30 c31 0 32 -2
32 -40 l0 -40 -65 0 c-63 0 -65 1 -65 25 0 24 -3 25 -67 27 l-68 2 68 3 c37 2
67 8 67 13 0 5 -28 11 -62 13 -35 2 -20 3 32 1 52 -2 110 -4 128 -4z m26882
-250 c0 -27 -3 -30 -30 -30 -27 0 -30 3 -30 30 0 27 3 30 30 30 27 0 30 -3 30
-30z m-26850 -130 c0 -27 -3 -30 -30 -30 -27 0 -30 3 -30 30 0 27 3 30 30 30
27 0 30 -3 30 -30z m-200 -80 c0 -5 -13 -10 -30 -10 -16 0 -30 5 -30 10 0 6
14 10 30 10 17 0 30 -4 30 -10z m1890 -210 l0 -60 -64 0 -64 0 -4 60 -3 60 68
0 67 0 0 -60z m24827 -72 c-3 -8 -6 -5 -6 6 -1 11 2 17 5 13 3 -3 4 -12 1 -19z
m-25087 -44 c0 -10 -15 -14 -59 -14 -33 0 -68 -3 -78 -7 -17 -6 -17 -6 -1 10
9 9 23 17 32 17 8 0 17 4 20 8 8 14 86 1 86 -14z m26570 -35 c0 -12 -31 -11
-50 1 -13 8 -13 10 2 10 11 0 15 6 11 23 l-5 22 21 -24 c12 -13 21 -27 21 -32z
m-1530 27 c0 -3 -4 -8 -10 -11 -5 -3 -10 -1 -10 4 0 6 5 11 10 11 6 0 10 -2
10 -4z m-66 -63 c-5 -5 -12 -12 -16 -18 -4 -6 -8 -2 -8 8 0 9 7 17 17 17 9 0
12 -3 7 -7z m-25861 -144 l22 0 -22 -16 c-21 -14 -23 -24 -23 -96 0 -100 -8
-98 -11 2 -2 69 -3 72 -16 50 -10 -17 -12 -18 -8 -4 4 11 9 29 12 40 10 40 15
51 20 38 3 -7 14 -13 26 -14z m187 -2 c54 -3 54 -3 -12 -5 -57 -2 -68 1 -68
14 0 12 3 14 13 6 7 -6 37 -12 67 -15z m3310 -140 c0 -5 -7 -6 -16 -3 -9 3
-18 6 -20 6 -2 0 -4 7 -4 15 0 13 3 13 20 3 11 -7 20 -17 20 -21z m7435 -77
c3 -5 1 -10 -4 -10 -6 0 -11 5 -11 10 0 6 2 10 4 10 3 0 8 -4 11 -10z m-10939
-40 c8 0 14 -7 14 -15 0 -12 -4 -13 -19 -5 -11 5 -35 11 -53 11 -29 2 -30 2
-6 6 17 3 30 13 35 26 l7 22 4 -22 c2 -13 10 -23 18 -23z m-94 -39 c-4 -10 -7
-11 -10 -3 -7 22 -35 14 -29 -8 3 -13 0 -20 -9 -20 -13 0 -11 18 5 45 3 6 6
13 7 18 1 4 2 10 3 14 0 3 9 -2 20 -13 10 -10 16 -26 13 -33z m-112 -225 c0
-3 -4 -8 -10 -11 -5 -3 -10 -1 -10 4 0 6 5 11 10 11 6 0 10 -2 10 -4z m25134
-181 c19 -14 17 -15 -17 -15 -32 0 -36 2 -25 15 16 18 18 18 42 0z m-23863
-185 c12 0 12 -2 0 -9 -21 -13 -41 -2 -41 23 1 20 2 20 14 4 7 -10 19 -18 27
-18z m10589 16 c0 -2 -7 -7 -16 -10 -8 -3 -12 -2 -9 4 6 10 25 14 25 6z
m-9993 -102 c-3 -3 -12 -4 -19 -1 -8 3 -5 6 6 6 11 1 17 -2 13 -5z m10873
-189 l0 -65 -35 0 -35 0 0 65 0 65 35 0 35 0 0 -65z m-166 -80 c-4 -8 -8 -15
-10 -15 -2 0 -4 7 -4 15 0 8 4 15 10 15 5 0 7 -7 4 -15z m373 -492 c-3 -10 -5
-2 -5 17 0 19 2 27 5 18 2 -10 2 -26 0 -35z m343 -367 c-19 -7 -53 -16 -75
-19 -33 -5 -37 -4 -20 5 21 12 76 25 110 26 11 0 5 -5 -15 -12z m12330 -311
c-7 -8 -25 -15 -41 -15 -19 0 -29 5 -29 15 0 11 11 15 41 15 36 0 40 -2 29
-15z m-210 -215 c0 -25 -4 -30 -25 -30 -21 0 -25 5 -25 30 0 25 4 30 25 30 21
0 25 -5 25 -30z m-10063 -337 c-3 -10 -5 -2 -5 17 0 19 2 27 5 18 2 -10 2 -26
0 -35z m7533 -183 c0 -27 -3 -30 -30 -30 -27 0 -30 3 -30 30 0 27 3 30 30 30
27 0 30 -3 30 -30z m1403 23 c-18 -2 -48 -2 -65 0 -18 2 -4 4 32 4 36 0 50 -2
33 -4z m-883 -83 c0 -27 -3 -30 -30 -30 -27 0 -30 3 -30 30 0 27 3 30 30 30
27 0 30 -3 30 -30z m-5732 -2717 c-10 -2 -26 -2 -35 0 -10 3 -2 5 17 5 19 0
27 -2 18 -5z m332 -483 c0 -11 -50 -11 -95 0 -24 6 -17 8 33 9 35 0 62 -3 62
-9z"/>
<path d="M32711 12591 c-7 -5 -10 -14 -7 -20 9 -14 142 -15 151 -1 4 6 -5 10
-19 10 -14 0 -26 5 -26 10 0 6 -8 10 -17 10 -15 0 -16 -2 -3 -10 13 -9 13 -10
0 -11 -27 -2 -55 3 -60 12 -3 4 -12 4 -19 0z"/>
<path d="M32748 12593 c7 -3 16 -2 19 1 4 3 -2 6 -13 5 -11 0 -14 -3 -6 -6z"/>
<path d="M32640 12570 c0 -13 7 -20 20 -20 11 0 20 -7 20 -15 0 -22 17 -18 23
5 3 11 1 20 -4 20 -5 0 -9 7 -9 15 0 9 -9 15 -25 15 -18 0 -25 -5 -25 -20z"/>
<path d="M33053 12552 c-6 -4 -15 -31 -19 -60 l-7 -52 37 0 c33 0 36 2 36 29
0 25 4 30 28 33 21 2 28 9 30 31 3 26 2 27 -45 27 -26 0 -53 -4 -60 -8z"/>
<path d="M33585 12510 c3 -5 -3 -10 -14 -10 -12 0 -21 -7 -21 -15 0 -12 14
-15 65 -15 37 0 65 4 65 10 0 6 -6 10 -12 10 -10 0 -10 2 0 9 11 7 10 10 -3
15 -27 10 -87 7 -80 -4z"/>
<path d="M33700 12505 c0 -16 19 -18 60 -6 24 7 24 7 -9 14 -47 10 -51 9 -51
-8z"/>
<path d="M33832 12511 c-13 -3 -23 -9 -23 -13 1 -5 1 -17 1 -28 0 -16 7 -20
30 -20 20 0 30 -5 30 -15 0 -10 10 -15 34 -15 33 0 33 1 34 45 1 25 -2 46 -6
46 -23 5 -80 5 -100 0z m38 -11 c0 -5 -7 -10 -16 -10 -8 0 -12 5 -9 10 3 6 10
10 16 10 5 0 9 -4 9 -10z"/>
<path d="M32702 12470 c0 -14 2 -19 5 -12 2 6 2 18 0 25 -3 6 -5 1 -5 -13z"/>
<path d="M33680 12436 c0 -11 8 -16 28 -15 37 0 112 16 86 18 -12 0 -42 4 -68
7 -38 6 -46 4 -46 -10z"/>
<path d="M33480 12380 c0 -13 7 -20 20 -20 23 0 26 10 8 28 -18 18 -28 15 -28
-8z"/>
<path d="M36938 12033 c7 -3 16 -2 19 1 4 3 -2 6 -13 5 -11 0 -14 -3 -6 -6z"/>
<path d="M34200 11870 c0 -16 5 -30 10 -30 6 0 10 14 10 30 0 17 -4 30 -10 30
-5 0 -10 -13 -10 -30z"/>
<path d="M32932 11350 c0 -14 2 -19 5 -12 2 6 2 18 0 25 -3 6 -5 1 -5 -13z"/>
<path d="M32901 11334 c0 -11 3 -14 6 -6 3 7 2 16 -1 19 -3 4 -6 -2 -5 -13z"/>
<path d="M32932 11290 c0 -19 2 -27 5 -17 2 9 2 25 0 35 -3 9 -5 1 -5 -18z"/>
<path d="M32306 11241 c-4 -5 3 -7 14 -4 23 6 26 13 6 13 -8 0 -17 -4 -20 -9z"/>
<path d="M32570 11206 c0 -9 7 -16 16 -16 17 0 14 22 -4 28 -7 2 -12 -3 -12
-12z"/>
<path d="M32360 11196 c0 -8 5 -18 10 -21 6 -3 10 3 10 14 0 12 -4 21 -10 21
-5 0 -10 -6 -10 -14z"/>
<path d="M32391 11108 c17 -32 79 -30 79 4 0 16 -6 18 -44 16 -38 -3 -43 -5
-35 -20z"/>
<path d="M30693 10562 c0 -10 9 -18 18 -18 19 0 15 22 -6 30 -9 3 -13 -2 -12
-12z"/>
<path d="M29507 10493 c-3 -16 -2 -34 2 -41 5 -8 8 4 9 27 2 47 -3 54 -11 14z"/>
<path d="M29570 10375 c0 -28 4 -35 20 -35 24 0 28 35 4 44 -8 3 -12 10 -9 16
3 5 1 10 -4 10 -6 0 -11 -16 -11 -35z"/>
<path d="M30040 10380 c0 -29 0 -29 -67 -33 -60 -3 -58 -3 25 -5 86 -2 92 -1
92 18 0 11 -4 20 -10 20 -5 0 -10 7 -10 15 0 8 -7 15 -15 15 -10 0 -15 -10
-15 -30z"/>
<path d="M1301 10153 l-1 -63 -35 0 c-24 0 -35 -5 -35 -15 0 -10 11 -15 35
-15 21 0 35 -5 35 -12 0 -7 6 -4 12 7 14 23 13 100 -1 135 -8 21 -10 15 -10
-37z"/>
<path d="M910 10035 c0 -10 11 -15 35 -15 24 0 35 5 35 15 0 10 -11 15 -35 15
-24 0 -35 -5 -35 -15z"/>
<path d="M1040 10005 c0 -13 15 -15 97 -13 66 2 98 7 101 16 3 9 -21 12 -97
12 -84 0 -101 -3 -101 -15z"/>
<path d="M1301 9988 c0 -28 2 -30 9 -13 12 28 12 45 0 45 -5 0 -10 -15 -9 -32z"/>
<path d="M718 9953 c-68 -4 -68 -4 -68 -33 l0 -30 -130 0 c-80 0 -130 4 -130
10 0 6 -28 10 -65 10 -63 0 -65 -1 -65 -25 l0 -25 195 0 c167 0 195 2 195 15
0 12 14 15 65 15 58 0 65 2 65 20 0 19 7 20 130 20 109 0 130 2 130 15 0 13
-20 15 -127 13 -71 -1 -158 -3 -195 -5z"/>
<path d="M1300 9852 c0 -20 -6 -22 -97 -25 l-98 -3 103 0 104 1 -4 -36 c-3
-29 0 -35 11 -31 11 4 13 1 8 -12 -4 -10 -7 -24 -7 -32 0 -11 -17 -14 -75 -14
-60 0 -75 -3 -75 -15 0 -13 -36 -15 -260 -15 l-260 0 0 -50 0 -50 -325 0 -325
0 0 -65 c0 -58 2 -65 19 -65 11 0 23 -4 26 -10 3 -5 21 -10 40 -10 19 0 36 -4
39 -8 3 -5 40 -17 83 -27 43 -9 105 -26 138 -35 33 -10 87 -23 120 -30 33 -6
82 -18 109 -26 27 -7 52 -11 56 -9 5 3 10 1 12 -4 1 -5 17 -12 33 -15 17 -3
56 -12 88 -20 31 -8 58 -14 60 -14 1 -1 14 -5 28 -10 32 -13 256 -64 286 -66
13 0 23 -3 23 -6 0 -4 35 -14 78 -24 42 -10 87 -22 100 -27 39 -15 62 -11 62
12 0 11 -4 18 -8 15 -5 -3 -14 96 -22 219 -7 124 -16 225 -19 225 -7 0 -8 19
-10 171 -1 82 -4 98 -21 114 -19 18 -20 17 -20 -3z m37 -244 c-3 -8 -6 -5 -6
6 -1 11 2 17 5 13 3 -3 4 -12 1 -19z m-1089 -185 c-10 -2 -26 -2 -35 0 -10 3
-2 5 17 5 19 0 27 -2 18 -5z"/>
<path d="M0 9725 l0 -35 100 0 100 0 0 35 0 35 -100 0 -100 0 0 -35z"/>
<path d="M650 9725 l0 -25 -197 -3 c-188 -2 -185 -3 65 -5 l262 -2 0 30 0 30
-65 0 c-63 0 -65 -1 -65 -25z"/>
<path d="M9077 9494 c-8 -8 1 -24 14 -24 5 0 9 7 9 15 0 15 -12 20 -23 9z"/>
<path d="M9230 9460 c0 -12 -7 -20 -16 -20 -10 0 -14 -7 -12 -22 5 -32 28 -35
28 -4 0 21 5 26 27 26 25 0 26 0 8 20 -10 11 -22 20 -27 20 -4 0 -8 -9 -8 -20z"/>
<path d="M9780 9326 c0 -22 17 -28 24 -10 9 22 8 24 -9 24 -8 0 -15 -6 -15
-14z"/>
<path d="M9757 9304 c-4 -4 -7 -16 -7 -26 0 -18 1 -18 16 -3 11 10 13 20 7 26
-5 5 -12 6 -16 3z"/>
<path d="M6286 9255 c-3 -9 0 -15 9 -15 8 0 15 7 15 15 0 8 -4 15 -9 15 -5 0
-11 -7 -15 -15z"/>
<path d="M9700 9230 c0 -5 5 -10 10 -10 6 0 10 5 10 10 0 6 -4 10 -10 10 -5 0
-10 -4 -10 -10z"/>
<path d="M1410 9110 c0 -5 5 -10 10 -10 6 0 10 5 10 10 0 6 -4 10 -10 10 -5 0
-10 -4 -10 -10z"/>
<path d="M10920 8800 c0 -16 7 -20 35 -20 25 0 35 4 35 15 0 11 -7 14 -25 9
-15 -4 -25 -2 -25 5 0 6 -4 11 -10 11 -5 0 -10 -9 -10 -20z"/>
<path d="M11073 8793 c9 -2 23 -2 30 0 6 3 -1 5 -18 5 -16 0 -22 -2 -12 -5z"/>
<path d="M1430 8765 c0 -24 2 -25 65 -25 63 0 65 1 65 25 0 24 -2 25 -65 25
-63 0 -65 -1 -65 -25z"/>
<path d="M2400 8770 c0 -5 7 -10 15 -10 8 0 15 5 15 10 0 6 -7 10 -15 10 -8 0
-15 -4 -15 -10z"/>
<path d="M27056 8701 c-3 -4 -19 -11 -36 -14 -42 -9 -38 -23 9 -31 63 -10 88
8 57 40 -17 16 -23 17 -30 5z"/>
<path d="M1410 8560 c0 -16 5 -30 10 -30 6 0 10 14 10 30 0 17 -4 30 -10 30
-5 0 -10 -13 -10 -30z"/>
<path d="M26140 8535 c0 -10 9 -15 28 -14 16 1 20 3 10 6 -10 2 -18 9 -18 14
0 5 -4 9 -10 9 -5 0 -10 -7 -10 -15z"/>
<path d="M26200 8535 c0 -8 5 -15 10 -15 6 0 10 7 10 15 0 8 -4 15 -10 15 -5
0 -10 -7 -10 -15z"/>
<path d="M26261 8494 c0 -11 3 -14 6 -6 3 7 2 16 -1 19 -3 4 -6 -2 -5 -13z"/>
<path d="M26280 8455 c0 -8 5 -15 10 -15 6 0 10 7 10 15 0 8 -4 15 -10 15 -5
0 -10 -7 -10 -15z"/>
<path d="M2471 8404 c0 -11 3 -14 6 -6 3 7 2 16 -1 19 -3 4 -6 -2 -5 -13z"/>
<path d="M2474 8321 c3 -13 1 -33 -5 -43 -5 -10 -7 -18 -5 -18 15 0 25 40 16
62 l-11 23 5 -24z"/>
<path d="M28740 8295 c0 -38 0 -38 24 -29 17 7 22 34 6 34 -5 0 -10 7 -10 15
0 8 -4 15 -10 15 -5 0 -10 -16 -10 -35z"/>
<path d="M30300 8288 c0 -9 5 -20 10 -23 13 -8 13 5 0 25 -8 13 -10 13 -10 -2z"/>
<path d="M28610 8230 c0 -27 3 -30 30 -30 28 0 30 -3 30 -37 0 -20 3 -34 6
-30 3 3 3 33 -1 66 -7 59 -8 61 -36 61 -26 0 -29 -4 -29 -30z"/>
<path d="M30320 8215 c0 -8 4 -15 10 -15 5 0 7 7 4 15 -4 8 -8 15 -10 15 -2 0
-4 -7 -4 -15z"/>
<path d="M28480 8120 c0 -5 16 -10 35 -10 19 0 35 5 35 10 0 6 -16 10 -35 10
-19 0 -35 -4 -35 -10z"/>
<path d="M26580 8030 c0 -5 5 -10 10 -10 6 0 10 5 10 10 0 6 -4 10 -10 10 -5
0 -10 -4 -10 -10z"/>
<path d="M25617 7068 c-7 -23 -1 -38 14 -38 5 0 9 14 9 30 0 35 -15 40 -23 8z"/>
<path d="M25663 6963 c-7 -2 -13 -18 -13 -34 0 -26 3 -29 35 -29 32 0 35 3 35
29 0 34 -23 48 -57 34z"/>
<path d="M13650 6381 c0 -33 5 -63 10 -66 6 -4 10 18 10 59 0 37 -4 66 -10 66
-6 0 -10 -26 -10 -59z"/>
<path d="M22040 6390 c0 -5 16 -10 36 -10 21 0 33 4 29 10 -3 6 -19 10 -36 10
-16 0 -29 -4 -29 -10z"/>
<path d="M22243 6318 l-73 -10 0 -59 0 -59 -162 -2 -163 -3 0 -65 c-1 -36 -4
-101 -8 -145 -3 -44 -9 -174 -12 -290 l-6 -210 22 35 c89 141 121 195 159 265
24 44 49 87 56 95 6 8 24 38 39 65 15 28 37 64 50 80 12 17 25 42 28 56 4 14
20 43 37 64 16 21 30 44 30 51 0 8 16 35 35 60 41 54 59 85 48 83 -4 -1 -41
-6 -80 -11z"/>
<path d="M24840 6170 c0 -5 16 -10 35 -10 19 0 35 5 35 10 0 6 -16 10 -35 10
-19 0 -35 -4 -35 -10z"/>
<path d="M24190 5820 c0 -5 14 -10 30 -10 17 0 30 5 30 10 0 6 -13 10 -30 10
-16 0 -30 -4 -30 -10z"/>
<path d="M23440 5700 c0 -16 5 -30 10 -30 6 0 10 14 10 30 0 17 -4 30 -10 30
-5 0 -10 -13 -10 -30z"/>
<path d="M14310 5700 c-8 -5 -29 -10 -47 -10 -39 0 -53 -17 -15 -18 15 0 62
-4 105 -8 70 -6 77 -5 77 11 0 15 -7 17 -52 13 -29 -3 -45 -3 -35 -1 9 2 17 9
17 14 0 12 -31 11 -50 -1z"/>
<path d="M23300 5632 c0 -10 22 -32 32 -32 4 0 8 9 8 20 0 13 -7 20 -20 20
-11 0 -20 -4 -20 -8z"/>
<path d="M23317 5583 c-13 -12 -7 -33 8 -33 9 0 15 -9 15 -21 0 -21 1 -21 192
-15 105 3 194 8 196 11 6 6 -48 9 -95 6 -24 -2 -33 2 -33 13 0 14 -18 16 -130
16 -109 0 -130 2 -130 15 0 16 -12 20 -23 8z m141 -60 c-10 -2 -26 -2 -35 0
-10 3 -2 5 17 5 19 0 27 -2 18 -5z"/>
<path d="M22405 5533 c-66 -10 -39 -18 58 -17 92 1 96 0 37 -6 l-65 -7 75 3
c41 2 137 7 213 10 75 4 137 11 137 16 0 6 -45 6 -117 1 -140 -9 -169 -9 -248
-1 -33 3 -73 4 -90 1z"/>
<path d="M23033 5533 c9 -2 25 -2 35 0 9 3 1 5 -18 5 -19 0 -27 -2 -17 -5z"/>
<path d="M23210 5511 c0 -4 11 -6 25 -3 14 2 25 6 25 8 0 2 -11 4 -25 4 -14 0
-25 -4 -25 -9z"/>
<path d="M22848 5503 c56 -2 148 -2 205 0 56 1 10 3 -103 3 -113 0 -159 -2
-102 -3z"/>
<path d="M22240 5490 c0 -12 30 -12 85 -1 38 8 37 9 -22 10 -36 1 -63 -3 -63
-9z"/>
<path d="M26103 5493 c-25 -3 -33 -9 -33 -24 0 -14 8 -19 30 -20 17 -1 36 -2
43 -3 14 -1 17 47 2 49 -5 1 -25 0 -42 -2z"/>
<path d="M16515 5430 c3 -5 8 -10 11 -10 2 0 4 5 4 10 0 6 -5 10 -11 10 -5 0
-7 -4 -4 -10z"/>
<path d="M16325 5300 c-3 -5 -2 -10 4 -10 5 0 13 5 16 10 3 6 2 10 -4 10 -5 0
-13 -4 -16 -10z"/>
<path d="M16362 5289 c-10 -15 -10 -19 2 -19 15 0 29 27 18 34 -5 3 -13 -4
-20 -15z"/>
<path d="M16286 5271 c-4 -7 -5 -15 -2 -18 9 -9 19 4 14 18 -4 11 -6 11 -12 0z"/>
<path d="M25790 5260 c0 -5 5 -10 10 -10 6 0 10 5 10 10 0 6 -4 10 -10 10 -5
0 -10 -4 -10 -10z"/>
<path d="M16255 5240 c-3 -5 -1 -10 4 -10 6 0 11 5 11 10 0 6 -2 10 -4 10 -3
0 -8 -4 -11 -10z"/>
<path d="M16227 5222 c8 -5 -2 -18 -28 -41 -22 -18 -43 -30 -46 -27 -4 3 2 13
13 21 10 8 14 15 8 15 -6 0 -19 -9 -28 -19 -17 -18 -17 -19 1 -24 65 -17 113
0 113 40 0 21 -18 43 -34 43 -7 0 -6 -3 1 -8z"/>
<path d="M25580 5127 c0 -22 29 -35 40 -17 6 10 30 11 105 6 90 -7 96 -6 93
11 -3 16 -15 18 -121 18 -106 0 -117 -2 -117 -18z"/>
<path d="M14670 5110 c0 -16 4 -30 9 -30 5 0 11 14 13 30 3 20 0 30 -9 30 -8
0 -13 -12 -13 -30z"/>
<path d="M25550 5090 c0 -5 7 -10 16 -10 8 0 12 5 9 10 -3 6 -10 10 -16 10 -5
0 -9 -4 -9 -10z"/>
<path d="M16510 5020 c0 -6 28 -10 65 -10 37 0 65 4 65 10 0 6 -28 10 -65 10
-37 0 -65 -4 -65 -10z"/>
<path d="M25390 4986 c0 -30 4 -36 21 -36 17 0 20 5 17 32 -2 22 -9 34 -20 36
-15 3 -18 -4 -18 -32z"/>
<path d="M17141 4987 c-13 -21 -12 -21 5 -5 10 10 16 20 13 22 -3 3 -11 -5
-18 -17z"/>
<path d="M17090 4960 c0 -5 10 -10 23 -10 18 0 19 2 7 10 -19 13 -30 13 -30 0z"/>
<path d="M17063 4905 c-9 -10 -9 -16 -2 -20 14 -9 22 0 17 18 -2 13 -5 13 -15
2z"/>
<path d="M16976 4781 c-4 -7 -5 -15 -2 -18 9 -9 19 4 14 18 -4 11 -6 11 -12 0z"/>
<path d="M17000 4760 c-6 -12 -9 -24 -7 -27 3 -2 11 5 17 17 6 12 9 24 7 27
-3 2 -11 -5 -17 -17z"/>
<path d="M23203 4753 c15 -2 39 -2 55 0 15 2 2 4 -28 4 -30 0 -43 -2 -27 -4z"/>
<path d="M23963 4753 c-7 -2 -13 -18 -13 -34 0 -22 5 -29 20 -29 16 0 20 7 20
35 0 35 -3 38 -27 28z"/>
<path d="M16900 4708 c4 -75 3 -78 -32 -78 -25 0 -29 -3 -18 -10 13 -8 12 -10
-3 -10 -11 0 -15 -5 -11 -11 3 -6 1 -15 -5 -19 -9 -5 -8 -16 5 -43 l18 -37 28
43 c15 23 26 48 23 55 -3 7 -1 11 3 8 5 -3 17 9 27 27 10 18 12 26 4 20 -17
-16 -37 -17 -22 -2 7 7 9 25 6 40 -4 20 -1 29 7 29 10 0 10 3 0 15 -22 26 -32
16 -30 -27z"/>
<path d="M16941 4701 c-8 -15 -7 -20 5 -25 23 -9 24 -8 24 19 0 30 -15 33 -29
6z"/>
<path d="M15087 4553 c-4 -3 -7 -19 -7 -34 0 -27 2 -28 45 -27 49 1 51 2 33
23 -7 8 -19 21 -26 30 -13 16 -34 20 -45 8z"/>
<path d="M22652 4400 c0 -19 2 -27 5 -17 2 9 2 25 0 35 -3 9 -5 1 -5 -18z"/>
<path d="M21592 4140 c0 -19 2 -27 5 -17 2 9 2 25 0 35 -3 9 -5 1 -5 -18z"/>
<path d="M21390 4110 c0 -5 13 -10 29 -10 17 0 33 5 36 10 4 6 -8 10 -29 10
-20 0 -36 -4 -36 -10z"/>
<path d="M20160 3340 c0 -18 7 -20 60 -20 53 0 60 2 60 20 0 18 -7 20 -60 20
-53 0 -60 -2 -60 -20z"/>
<path d="M19770 3070 c0 -5 14 -10 30 -10 17 0 30 5 30 10 0 6 -13 10 -30 10
-16 0 -30 -4 -30 -10z"/>
<path d="M15860 2215 c0 -8 6 -15 14 -15 22 0 28 17 10 24 -22 9 -24 8 -24 -9z"/>
<path d="M15916 2205 c-9 -26 -7 -32 5 -12 6 10 9 21 6 23 -2 3 -7 -2 -11 -11z"/>
<path d="M15870 2180 c-12 -8 -11 -10 8 -10 12 0 22 5 22 10 0 13 -11 13 -30
0z"/>
<path d="M15745 2134 c9 -9 19 -13 23 -10 3 4 0 11 -8 16 -24 15 -33 11 -15
-6z"/>
<path d="M15785 2130 c-3 -5 -1 -10 4 -10 6 0 11 5 11 10 0 6 -2 10 -4 10 -3
0 -8 -4 -11 -10z"/>
<path d="M17763 1803 c9 -2 25 -2 35 0 9 3 1 5 -18 5 -19 0 -27 -2 -17 -5z"/>
</g>
</svg>
