<svg width="190" height="108" viewBox="0 0 190 108" fill="none" xmlns="http://www.w3.org/2000/svg">
<path d="M0 0H190V108H0V0Z" fill="#FF6B81"/>
<path d="M139.279 42.1288C139.279 41.5303 139.399 40.9318 139.399 40.3333C139.399 25.7303 127.443 14 112.83 14C102.806 14 94.2309 19.5061 89.6416 27.5258C86.3808 26.2091 82.8784 25.3712 79.1345 25.3712C68.3859 25.3712 59.2073 31.7152 54.9803 40.8121C42.4201 42.9667 33 53.7394 33 66.6667C33 81.2697 44.9563 93 59.5696 93H129.617C144.351 93 156.186 81.15 156.186 66.6667C156.186 55.5349 149.182 45.9591 139.279 42.1288Z" fill="white"/>
<path d="M51.6224 70.9948H51.8349C53.9135 70.9948 55.5977 69.3156 55.5977 67.243V66.1386H54.1259V65.42H55.6053V64.6636H54.1335V63.945H55.6053V63.1886H54.1335V62.47H55.6053V62.2733C55.6053 60.2007 53.9211 58.5215 51.8424 58.5215H51.63C49.5514 58.5215 47.8672 60.2007 47.8672 62.2733V62.47H49.3314V63.1886H47.8672V63.945H49.3314V64.6636H47.8672V65.42H49.3314V66.1386H47.8672V67.243C47.8672 69.3156 49.5514 70.9948 51.6224 70.9948Z" fill="#285A73"/>
<path d="M55.4888 72.9682C54.8592 72.9682 54.3281 73.3767 54.146 73.944H52.1736V72.3555C54.7302 72.121 56.7406 69.8745 56.7406 67.1514H55.9137C55.9137 69.5795 54.0398 71.5613 51.7336 71.5613C49.4273 71.5613 47.5535 69.587 47.5535 67.1514H46.7266C46.7266 69.882 48.737 72.1286 51.2936 72.3555V73.944H50.057C48.5776 73.944 47.3714 75.1467 47.3714 76.6217V77.0604H51.7032H51.9081H52.1584V76.6898H52.1736V74.8214H54.1536C54.3433 75.3812 54.8667 75.7821 55.4888 75.7821C56.2626 75.7821 56.8999 75.1543 56.8999 74.3751C56.8999 73.596 56.2626 72.9682 55.4888 72.9682ZM51.2936 76.183H48.3045C48.5018 75.4039 49.2149 74.8214 50.057 74.8214H51.2936V76.183ZM55.4888 74.8971C55.193 74.8971 54.9578 74.6626 54.9578 74.3676C54.9578 74.0726 55.193 73.8381 55.4888 73.8381C55.7847 73.8381 56.0199 74.0726 56.0199 74.3676C56.0199 74.6626 55.7771 74.8971 55.4888 74.8971Z" fill="#285A73"/>
<g clip-path="url(#clip0_4933_216770)">
<path d="M96.869 64.5859H98.5664V65.0947H96.869C96.7304 65.0947 96.6154 64.9794 96.6154 64.8403C96.6154 64.7013 96.7304 64.5859 96.869 64.5859Z" fill="#285A73"/>
<path d="M96.8521 65.9326H98.5664V66.4413H96.8521C96.7135 66.4413 96.5985 66.326 96.5985 66.187C96.5985 66.0445 96.7135 65.9326 96.8521 65.9326Z" fill="#285A73"/>
<path d="M100.515 57.1006L101.191 58.7896H99.8389L100.515 57.1006Z" fill="#285A73"/>
<path d="M99.261 64.2399H100.979C101.073 64.2399 101.148 64.3145 101.148 64.4094V64.5994C101.175 64.5892 101.205 64.5824 101.236 64.5824H107.467C107.606 64.5824 107.721 64.6977 107.721 64.8368C107.721 64.9758 107.606 65.0911 107.467 65.0911H101.232C101.202 65.0911 101.171 65.0844 101.144 65.0742V65.9255H107.724C108.323 65.9255 108.813 65.4371 108.813 64.8334C108.813 64.2297 108.326 63.7413 107.724 63.7413H96.8705C96.7318 63.7413 96.6169 63.626 96.6169 63.4869V50.4057C96.6169 50.2667 96.7318 50.1514 96.8705 50.1514H107.724C108.603 50.1514 109.32 50.8704 109.32 51.7522V64.8402C109.32 65.722 108.603 66.441 107.724 66.441H101.144V66.7191C101.144 66.7835 101.107 66.8446 101.05 66.8717C101.026 66.8819 101.002 66.8887 100.975 66.8887C100.938 66.8887 100.901 66.8751 100.871 66.8513L100.14 66.2612L99.3625 66.8547C99.3118 66.892 99.2441 66.8988 99.1866 66.8717C99.1292 66.8446 99.092 66.7835 99.092 66.7191V64.4094C99.092 64.3179 99.1664 64.2399 99.261 64.2399ZM105.787 53.8007H103.914V53.3021H103.149V53.8007H101.276V54.5672H101.902C101.973 54.8385 102.125 55.3133 102.453 55.8492C102.592 56.0798 102.774 56.3376 103.007 56.6055C102.612 56.9345 102.111 57.2601 101.496 57.5144L100.864 55.934H100.157L98.321 60.5227L99.0277 60.8076L99.5282 59.5595H101.489L101.99 60.8076L102.696 60.5227L101.777 58.2233C102.504 57.9248 103.092 57.5348 103.548 57.1447C104.025 57.5585 104.644 57.9553 105.439 58.2673L105.716 57.5551C105.046 57.294 104.519 56.965 104.103 56.6157C104.472 56.2188 104.701 55.8763 104.803 55.7033L104.15 55.3065C104.062 55.4524 103.87 55.744 103.559 56.0798C103.051 55.4931 102.805 54.9199 102.693 54.5672H105.78V53.8007H105.787ZM108.813 51.7522C108.813 51.1553 108.33 50.6669 107.734 50.6601V63.2394C108.15 63.2427 108.529 63.4055 108.813 63.6701V51.7522Z" fill="#285A73"/>
</g>
<path d="M84.3773 75.5961C83.44 74.9936 82.5362 74.2237 81.6993 73.4203C80.829 72.5499 80.0256 71.5792 79.423 70.6084C79.3896 70.5415 79.3226 70.508 79.2222 70.5415C78.0841 70.8762 76.8455 71.5122 75.6404 72.7173C74.4019 73.9559 73.7324 75.2614 73.4311 76.433C73.3976 76.4999 73.4311 76.5669 73.4981 76.6004C74.4019 77.2029 75.3057 77.9393 76.1091 78.7427C76.9459 79.5796 77.7158 80.5504 78.3184 81.4876C78.3519 81.5546 78.4188 81.5881 78.4858 81.5546C79.6908 81.2533 80.9963 80.5838 82.2349 79.3453C83.4065 78.1737 84.076 76.9351 84.4108 75.797C84.4442 75.6965 84.4442 75.6296 84.3773 75.5961ZM78.4858 77.9059C78.3853 78.0063 78.2514 78.0398 78.1175 78.0398C77.9836 78.0398 77.8497 78.0063 77.7493 77.9059L77.0464 77.2029C76.8455 77.002 76.8455 76.7008 77.0464 76.4999C77.2472 76.2991 77.5485 76.2991 77.7493 76.4999L78.4523 77.2029C78.6866 77.4037 78.6866 77.705 78.4858 77.9059ZM79.6574 76.7342C79.5569 76.8347 79.423 76.8682 79.2892 76.8682C79.1553 76.8682 79.0214 76.8347 78.9209 76.7342L78.218 76.0313C78.0171 75.8304 78.0171 75.5292 78.218 75.3283C78.4188 75.1275 78.7201 75.1275 78.9209 75.3283L79.6239 76.0313C79.8582 76.1987 79.8582 76.5334 79.6574 76.7342ZM80.8625 75.5292C80.762 75.6296 80.6281 75.6631 80.4942 75.6631C80.3603 75.6631 80.2264 75.6296 80.126 75.5292L79.423 74.8262C79.2222 74.6254 79.2222 74.3241 79.423 74.1232C79.6239 73.9224 79.9252 73.9224 80.126 74.1232L80.829 74.8262C81.0298 75.027 81.0298 75.3283 80.8625 75.5292Z" fill="#285A73"/>
<path d="M75.5054 79.311C74.8025 78.608 74.133 78.039 73.4635 77.5703C73.3631 77.5034 73.1957 77.5703 73.1957 77.7042C73.0618 79.378 73.5304 80.6835 73.6643 81.0852C73.6978 81.1856 73.7648 81.2191 73.8317 81.2525C74.2334 81.4199 75.5054 81.8551 77.1792 81.7546C77.3131 81.7546 77.38 81.5873 77.3131 81.4868C76.8779 80.7839 76.2419 80.0474 75.5054 79.311ZM84.2088 70.9089C84.1753 70.8085 84.1084 70.775 84.0415 70.7415C83.6398 70.5741 82.2673 70.1055 80.4931 70.2729C80.3592 70.2729 80.2923 70.4402 80.3592 70.5407C80.8614 71.2771 81.4974 72.047 82.2673 72.8169C83.0037 73.5534 83.7067 74.1559 84.4097 74.6246C84.5101 74.6915 84.644 74.6246 84.6775 74.4907C84.8783 72.7165 84.3762 71.3441 84.2088 70.9089Z" fill="#285A73"/>
<path d="M139.613 55.2869C138.805 55.0561 137.959 55.5562 137.728 56.364C137.498 57.1718 137.998 58.018 138.805 58.2488C139.613 58.4796 140.459 57.9796 140.69 57.1718C140.921 56.3255 140.459 55.4793 139.613 55.2869Z" fill="#285A73"/>
<path d="M132.267 62.8259C132.421 62.2105 132.075 61.595 131.46 61.4027C130.844 61.2488 130.229 61.595 130.036 62.2105C129.883 62.8259 130.229 63.4414 130.844 63.6337C131.46 63.8261 132.114 63.4414 132.267 62.8259ZM136.499 69.7114C137.999 70.4807 139.845 70.4807 141.422 69.596C143 68.7113 143.923 67.0957 144.038 65.4032C143.038 66.211 141.807 67.0572 140.422 67.8266C139.076 68.5959 137.73 69.2498 136.499 69.7114ZM145.923 60.5564C145.346 59.5563 143.461 59.864 141.461 60.5949C139.922 59.6717 137.922 59.5948 136.229 60.5564C134.575 61.5181 133.652 63.2106 133.614 65.0185C132.383 66.0186 131.421 67.0188 131.229 67.8266C131.113 68.2882 131.229 68.5959 131.306 68.7882C131.575 69.2498 132.075 69.4037 132.768 69.4037C134.691 69.4037 137.845 67.942 139.845 66.8264C142.615 65.2878 145.577 63.0183 146 61.5181C146.154 61.0565 146.038 60.7487 145.923 60.5564ZM132.344 68.1728C132.344 67.9035 132.844 67.2111 133.806 66.3648C133.921 66.788 134.075 67.2496 134.306 67.6342C134.345 67.7112 134.422 67.8266 134.46 67.9035C133.306 68.2882 132.575 68.3266 132.344 68.1728ZM137.307 62.4028C136.422 62.9029 135.845 63.8261 135.768 64.8646C135.768 65.1339 135.537 65.3262 135.306 65.3262H135.268C134.999 65.3262 134.806 65.0954 134.806 64.8262C134.883 63.4799 135.652 62.2874 136.806 61.595C137.037 61.4796 137.345 61.5565 137.46 61.7873C137.614 61.9797 137.537 62.2874 137.307 62.4028ZM143.538 62.8644C143.5 62.749 143.423 62.5951 143.346 62.4797C143.115 62.0951 142.846 61.7489 142.538 61.4411C143.807 61.0565 144.654 60.9795 144.884 61.1334C144.923 61.4027 144.461 62.0181 143.538 62.8644Z" fill="#285A73"/>
<path d="M69.9594 49.2662V46.4761L69.1009 46.0039V49.2662C68.7145 49.4379 68.4141 49.8242 68.4141 50.2535C68.4141 50.8544 68.8862 51.3266 69.4872 51.3266C70.0881 51.3266 70.5603 50.8544 70.5603 50.2535C70.5603 49.8242 70.3028 49.4379 69.9594 49.2662Z" fill="#285A73"/>
<path d="M76.703 50.0818C76.3596 50.0818 76.0162 49.9959 75.7586 49.8242L71.0369 47.12V49.2662C71.0798 49.2662 71.0798 49.3091 71.1228 49.3091L75.8874 52.0563C76.4025 52.3568 77.0893 52.3568 77.6044 52.0563L82.369 49.3091C82.8841 49.0087 83.2275 48.4506 83.2275 47.8068V46.6478L77.6473 49.8242C77.3898 49.9959 77.0464 50.0818 76.703 50.0818ZM84.9875 42.9133L77.5615 38.6209C77.3039 38.4492 77.0035 38.4062 76.703 38.4062C76.4025 38.4062 76.102 38.4921 75.8445 38.6209L68.4185 42.9133C67.8605 43.2567 67.8605 44.0723 68.4185 44.3728L76.2737 48.8799C76.4025 48.9657 76.5313 49.0087 76.703 49.0087C76.8318 49.0087 77.0035 48.9657 77.1322 48.8799L84.9875 44.3728C85.5455 44.0294 85.5455 43.2138 84.9875 42.9133Z" fill="#285A73"/>
<path d="M121.166 32.5289C120.599 32.4911 120.108 32.9069 120.108 33.4738V35.7416C120.07 36.233 119.881 36.7243 119.541 37.0645L118.596 38.0094C118.407 38.1984 118.104 38.1984 117.915 38.0094C117.726 37.8204 117.726 37.5181 117.915 37.3291L118.86 36.3842C119.2 36.044 119.238 35.5527 118.974 35.1747C118.634 34.7589 118.029 34.7589 117.689 35.0991L115.799 36.9889C115.383 37.4047 115.118 38.0094 115.118 38.5764V39.7103C115.118 39.8237 115.194 39.8992 115.307 39.8992H119.2C119.238 39.8992 119.314 39.8615 119.352 39.8237L121.468 37.3291C121.808 36.9133 121.997 36.3842 121.997 35.855V33.5116C122.035 33.0203 121.657 32.5667 121.166 32.5289ZM110.885 33.9652C110.999 34.1164 111.225 34.1164 111.339 33.9652L111.717 33.4738C111.792 33.3605 111.792 33.2471 111.717 33.1337L111.528 32.8691V31.6218L110.772 31.2061V32.8313L110.545 33.1337C110.469 33.2471 110.469 33.3605 110.545 33.4738L110.885 33.9652ZM111.301 35.0613C110.923 34.6833 110.356 34.7211 110.016 35.1369C109.714 35.4771 109.789 36.0062 110.129 36.3464L111.074 37.2913C111.263 37.4803 111.263 37.7826 111.074 37.9716C110.885 38.1606 110.583 38.1606 110.394 37.9716L109.449 37.0267C109.109 36.6865 108.882 36.1952 108.882 35.7038V33.4361C108.882 32.8691 108.391 32.4533 107.824 32.4911C107.332 32.5289 106.992 32.9825 106.992 33.4738V35.8172C106.992 36.3464 107.181 36.8755 107.521 37.2913L109.638 39.7859C109.676 39.8237 109.714 39.8615 109.789 39.8615H113.682C113.796 39.8615 113.871 39.7859 113.871 39.6725V38.5386C113.871 37.9338 113.644 37.3669 113.191 36.9511L111.301 35.0613Z" fill="#285A73"/>
<path d="M110.811 30.1856L114.477 32.3022C114.553 32.34 114.591 32.34 114.666 32.34C114.742 32.34 114.817 32.34 114.855 32.3022L118.521 30.1856C118.786 30.0344 118.786 29.6565 118.521 29.5053L115.006 27.5021C114.893 27.4265 114.78 27.3887 114.628 27.3887C114.515 27.3887 114.364 27.4265 114.25 27.5021L110.735 29.5053C110.546 29.6565 110.546 30.0344 110.811 30.1856ZM113.797 40.9198H109.904C109.79 40.9198 109.715 40.9954 109.715 41.1088V41.8647C109.715 41.9781 109.79 42.0537 109.904 42.0537H113.797C113.91 42.0537 113.986 41.9781 113.986 41.8647V41.1088C113.986 41.0332 113.872 40.9198 113.797 40.9198ZM117.35 33.0581C117.577 32.907 117.728 32.6802 117.728 32.3778V31.7353L115.384 33.0959C115.195 33.2093 114.969 33.2849 114.704 33.2849C114.477 33.2849 114.25 33.2093 114.024 33.0959L112.247 32.0754V33.1715L114.326 34.3432C114.553 34.4944 114.855 34.4944 115.082 34.3432L117.35 33.0581ZM119.126 40.9198H115.233C115.12 40.9198 115.044 40.9954 115.044 41.1088V41.8647C115.044 41.9781 115.12 42.0537 115.233 42.0537H119.126C119.24 42.0537 119.315 41.9781 119.315 41.8647V41.1088C119.315 41.0332 119.24 40.9198 119.126 40.9198Z" fill="#285A73"/>
<path d="M118.076 79.7607C117.875 79.7607 117.741 79.8946 117.741 80.0955V81.9701L116.503 83.2086C116.369 83.3425 116.369 83.5434 116.503 83.6773C116.57 83.7442 116.67 83.7777 116.737 83.7777C116.838 83.7777 116.904 83.7442 116.971 83.6773L118.31 82.3383C118.377 82.2713 118.411 82.2044 118.411 82.104V80.0955C118.411 79.9281 118.277 79.7607 118.076 79.7607Z" fill="#285A73"/>
<path d="M115.498 76.1451C114.762 75.4087 113.557 75.4087 112.787 76.1451L112.552 76.3794C111.816 77.1159 111.816 78.321 112.552 79.0909C112.619 79.1578 112.72 79.1578 112.787 79.0909L115.498 76.3794C115.565 76.3125 115.565 76.2121 115.498 76.1451ZM118.745 77.1493V76.9485C118.745 76.4798 118.377 76.1116 117.908 76.1116C117.44 76.1116 117.071 76.4798 117.071 76.9485V77.1828C114.795 77.6515 113.054 79.6599 113.054 82.1036C113.054 83.476 113.59 84.7146 114.494 85.6184L113.958 86.7231C113.724 87.2252 114.059 87.7943 114.628 87.7943C114.896 87.7943 115.163 87.6269 115.297 87.3926L115.732 86.5222C116.435 86.8904 117.239 87.1248 118.109 87.1248C118.979 87.1248 119.783 86.9239 120.486 86.5222L120.921 87.3926C121.055 87.6604 121.323 87.7943 121.59 87.7943C122.16 87.7943 122.494 87.2252 122.26 86.7231L121.724 85.6184C122.595 84.7146 123.164 83.476 123.164 82.1036C123.097 79.5595 121.222 77.4841 118.745 77.1493ZM118.076 85.451C116.235 85.451 114.728 83.9447 114.728 82.1036C114.728 80.2625 116.235 78.7561 118.076 78.7561C119.917 78.7561 121.423 80.2625 121.423 82.1036C121.423 83.9782 119.917 85.451 118.076 85.451ZM123.666 76.4129L123.432 76.1786C122.695 75.4421 121.49 75.4421 120.72 76.1786C120.653 76.2455 120.653 76.346 120.72 76.4129L123.432 79.1243C123.499 79.1913 123.599 79.1913 123.666 79.1243C124.436 78.3544 124.436 77.1493 123.666 76.4129Z" fill="#285A73"/>
<defs>
<clipPath id="clip0_4933_216770">
<rect width="12.7203" height="16.7373" fill="white" transform="matrix(-1 0 0 1 109.32 50.1514)"/>
</clipPath>
</defs>
</svg>
