<svg width="428" height="337" viewBox="0 0 428 337" fill="none" xmlns="http://www.w3.org/2000/svg">
<rect width="428" height="336.356" fill="url(#paint0_linear_999_60611)"/>
<path d="M160.334 70.8193C100.971 103 28.71 93.2641 0 84.3736V321.356H428V115.855C411.746 114.805 347.318 87.7258 317.135 74.3172C289.603 59.7427 219.698 38.6387 160.334 70.8193Z" fill="#FF6B81"/>
<path d="M199.448 73.865C144.776 125.574 44.6837 138.132 0 138.94V328H428V142.796C396.756 129.924 267.788 9.229 199.448 73.865Z" fill="#FF8092"/>
<rect x="20" y="184" width="392" height="44" rx="22" fill="#FEFDFE"/>
<path d="M56.6229 212.826L52.2068 208.599C51.3958 207.823 50.1174 207.822 49.3062 208.598V208.598C48.4425 209.425 48.4425 210.804 49.3062 211.63L53.5917 215.73C54.0735 216.19 54.8664 216.19 55.3482 215.73L56.6229 214.51C57.1047 214.045 57.1047 213.283 56.6229 212.826Z" fill="#B7B7B7"/>
<path d="M47.094 208.135C47.5189 208.542 48.1885 208.542 48.6135 208.135V208.135C49.066 207.703 49.066 206.98 48.6135 206.547L48.4566 206.397C47.9842 205.945 47.9343 205.219 48.2105 204.626C49.2481 202.401 48.8156 199.698 46.9073 197.872C44.4389 195.511 40.4272 195.511 37.9546 197.872C35.4819 200.233 35.4862 204.071 37.9546 206.436C39.8693 208.267 42.7078 208.678 45.0391 207.672C45.6521 207.408 46.3846 207.457 46.867 207.918L47.094 208.135ZM39.1824 205.245C37.3918 203.532 37.3918 200.755 39.1824 199.047C40.9729 197.334 43.8762 197.334 45.6624 199.047C47.453 200.759 47.453 203.536 45.6624 205.245C43.8762 206.958 40.9729 206.958 39.1824 205.245Z" fill="#B7B7B7"/>
<path d="M350.351 211.8H349.058L352.797 201.618H354.069L357.808 211.8H356.515L353.473 203.229H353.393L350.351 211.8ZM350.828 207.823H356.038V208.916H350.828V207.823ZM360.408 201.618V211.8H359.235V201.618H360.408ZM363.73 201.618V211.8H362.557V201.618H363.73Z" fill="#B7B7B7"/>
<path d="M386.65 211.6L381.67 205.562L391.63 205.562L386.65 211.6Z" fill="#B7B7B7"/>
<defs>
<linearGradient id="paint0_linear_999_60611" x1="116.106" y1="67.9869" x2="265.56" y2="171.949" gradientUnits="userSpaceOnUse">
<stop stop-color="#FF6B81" stop-opacity="0.86"/>
<stop offset="1" stop-color="#FDCB6E"/>
</linearGradient>
</defs>
</svg>
