<svg width="190" height="108" viewBox="0 0 190 108" fill="none" xmlns="http://www.w3.org/2000/svg">
<path d="M0 0H190V108H0V0Z" fill="#FF6B81"/>
<g clip-path="url(#clip0_4933_216747)">
<path d="M131 54.5415V54.6246C130.917 74.1392 115.056 90 95.5415 90C90.8912 90 86.407 89.0865 82.338 87.4257C69.2175 82.1942 60 69.4058 60 54.5415C60 34.8608 75.8608 19 95.4585 19C115.056 19 131 34.8608 131 54.5415Z" fill="white"/>
<path d="M131 54.6244C130.917 74.139 115.056 89.9998 95.5411 89.9998C90.8908 89.9998 86.4066 89.0864 82.3376 87.4256L68.3867 73.4747L122.695 46.3203L131 54.6244Z" fill="url(#paint0_linear_4933_216747)"/>
<path d="M111.985 70.984C111.985 71.5653 111.486 72.0635 110.905 72.0635H73.5366C72.9553 72.0635 72.457 71.5653 72.457 70.984V48.5629C72.457 47.9816 72.9553 47.4834 73.5366 47.4834H110.905C111.486 47.4834 111.985 47.9816 111.985 48.5629V70.984Z" fill="#284962"/>
<path d="M109.493 49.2275H75.0312V70.3199H109.493V49.2275Z" fill="white"/>
<path d="M114.89 75.1357C114.309 75.883 113.147 75.883 112.565 75.883H72.0414C71.4601 75.883 70.6297 75.9661 69.7162 75.1357L68.4706 73.6409C68.1385 73.3088 68.1385 72.8936 69.5501 72.8936H115.057C116.468 72.8936 116.468 73.3088 116.136 73.6409L114.89 75.1357Z" fill="#284962"/>
<path d="M114.228 55.7876C113.564 57.5314 107.336 58.3618 101.025 56.0367C94.7138 53.6285 90.6448 48.8121 91.3091 47.1513L95.129 37.0203C98.3676 34.6952 102.769 39.2624 106.838 40.8402C110.99 42.418 117.301 41.8367 118.048 45.7396L114.228 55.7876Z" fill="#285A73"/>
<path d="M104.014 47.317C103.848 47.317 103.681 47.2339 103.598 47.1509L91.7235 34.6117C91.5574 34.4456 91.5574 34.1965 91.6405 33.9474C91.7235 33.7813 91.8896 33.6152 92.1387 33.6152L108.913 34.6117C109.079 34.6117 109.162 34.6948 109.245 34.7778L122.033 46.3205C122.2 46.4866 122.283 46.7357 122.2 46.9018C122.117 47.1509 121.95 47.2339 121.701 47.2339L104.014 47.317Z" fill="#284962"/>
<path d="M122.364 45.9055L109.659 34.3628C109.493 34.1967 109.244 34.1137 108.995 34.1137L92.2206 33.1172H92.1376C91.7224 33.1172 91.3072 33.3663 91.1411 33.7815C90.975 34.1967 91.0581 34.695 91.3072 35.0271L103.182 47.5663C103.431 47.8154 103.68 47.8985 104.012 47.8985H121.7C122.115 47.8985 122.531 47.6494 122.697 47.1511C122.863 46.7359 122.697 46.2377 122.364 45.9055ZM104.012 46.7359L92.1376 34.1967L108.912 35.1932L121.7 46.7359H104.012Z" fill="#284962"/>
<path d="M116.386 62.5971C116.054 62.5971 115.805 62.3479 115.805 62.0158V50.307L106.421 41.1725C106.172 40.9234 106.172 40.5912 106.421 40.4251C106.67 40.176 107.003 40.176 107.169 40.4251L116.718 49.7257C116.801 49.8088 116.884 49.9748 116.884 50.1409V62.0988C116.884 62.3479 116.635 62.5971 116.386 62.5971Z" fill="#FFB700"/>
<path d="M118.792 64.0911C118.792 65.0045 118.128 65.6688 117.214 65.6688H115.636C114.723 65.6688 114.059 65.0045 114.059 64.0911V61.8489C114.059 60.9355 114.723 58.6104 115.636 58.6104H117.214C118.128 58.6104 118.875 60.9355 118.875 61.7659L118.792 64.0911Z" fill="#F99A24"/>
</g>
<defs>
<linearGradient id="paint0_linear_4933_216747" x1="89.3718" y1="53.2978" x2="117.493" y2="82.5815" gradientUnits="userSpaceOnUse">
<stop stop-color="#E1E1E1"/>
<stop offset="1" stop-color="white"/>
</linearGradient>
<clipPath id="clip0_4933_216747">
<rect width="71" height="71" fill="white" transform="translate(60 19)"/>
</clipPath>
</defs>
</svg>
