<svg width="24" height="30" viewBox="0 0 24 30" fill="none" xmlns="http://www.w3.org/2000/svg">
<path d="M0 8.14875V26.71C0 28.5247 1.47011 29.9971 3.28421 29.9971H20.7119C22.5278 29.9971 23.9979 28.5247 23.9979 26.71V3.28703C23.9979 1.47237 22.5278 0 20.7119 0H8.14806L1.70547 6.44276L0 8.14875Z" fill="white"/>
<path d="M0.000906123 8.15656L1.70638 6.45057L8.14896 0.0078125H20.7119C22.5278 0.0078125 23.9979 1.48018 23.9979 3.29484V10.9338H0V8.15656H0.000906123Z" fill="#5FB1E2"/>
<path d="M0 8.14447L4.02198 9.03278C5.79896 9.40042 7.53792 8.25494 7.90455 6.47741L8.07292 5.55469C8.01951 5.81185 7.93351 6.05725 7.82126 6.28906C7.28989 7.38655 6.16468 8.14266 4.86385 8.14266H0V8.14447Z" fill="#1F78AD"/>
<g opacity="0.4">
<path d="M0 8.14875H4.86385C6.16468 8.14875 7.28989 7.39174 7.82126 6.29516C7.93351 6.06334 8.01951 5.81795 8.07292 5.56078C8.12361 5.33621 8.14806 5.10168 8.14806 4.86172V0L1.70547 6.44366L0 8.14875Z" fill="#EFEFEF"/>
</g>
<path d="M17.8221 25.7353H6.17169C5.44569 25.7353 4.85547 25.1449 4.85547 24.4187V17.2307C4.85547 16.5045 5.44569 15.9141 6.17169 15.9141H17.8221C18.5481 15.9141 19.1383 16.5045 19.1383 17.2307V24.4187C19.1383 25.144 18.5481 25.7353 17.8221 25.7353ZM6.17169 16.9228C6.0015 16.9228 5.86391 17.0614 5.86391 17.2307V24.4187C5.86391 24.5889 6.00241 24.7266 6.17169 24.7266H17.8221C17.9923 24.7266 18.1299 24.588 18.1299 24.4187V17.2307C18.1299 17.0604 17.9914 16.9228 17.8221 16.9228H6.17169Z" fill="#5FB1E2"/>
<path d="M9.0727 25.4104L8.35938 24.6969L13.7953 19.2592C14.2833 18.7712 15.0717 18.7449 15.5913 19.1986L18.7832 21.9839L18.1206 22.7437L14.9287 19.9583C14.8074 19.8524 14.6227 19.8587 14.5087 19.9728L9.0727 25.4104Z" fill="#5FB1E2"/>
<path d="M5.87107 24.8673L5.08984 24.2299L7.02434 21.8592C7.25608 21.5749 7.59917 21.4001 7.96488 21.3775C8.3306 21.3548 8.69179 21.488 8.95612 21.7424L10.5204 23.2456L9.82153 23.9727L8.25728 22.4695C8.17309 22.388 8.07623 22.3808 8.02554 22.3844C7.97484 22.3871 7.87979 22.4062 7.80556 22.4967L5.87107 24.8673Z" fill="#5FB1E2"/>
<path d="M10.3821 19.0787C10.3821 19.5874 9.96844 20.0011 9.45969 20.0011C8.95185 20.0011 8.53906 19.5874 8.53906 19.0787C8.53906 18.5699 8.95276 18.1562 9.45969 18.1562C9.96844 18.1562 10.3821 18.5699 10.3821 19.0787Z" fill="#5FB1E2"/>
<path d="M11.8893 9.2C11.806 9.2 11.7326 9.19333 11.6693 9.18C11.606 9.17 11.551 9.15667 11.5043 9.14V8.785C11.5543 8.79833 11.606 8.81 11.6593 8.82C11.7126 8.83 11.771 8.835 11.8343 8.835C11.941 8.835 12.0293 8.805 12.0993 8.745C12.1693 8.68833 12.2043 8.57833 12.2043 8.415V5.32H12.6443V8.4C12.6443 8.56667 12.6176 8.71 12.5643 8.83C12.511 8.95 12.4293 9.04167 12.3193 9.105C12.2093 9.16833 12.066 9.2 11.8893 9.2ZM12.1693 4.595C12.1693 4.49833 12.1943 4.42833 12.2443 4.385C12.2943 4.33833 12.356 4.315 12.4293 4.315C12.496 4.315 12.5543 4.33833 12.6043 4.385C12.6576 4.42833 12.6843 4.49833 12.6843 4.595C12.6843 4.68833 12.6576 4.75833 12.6043 4.805C12.5543 4.85167 12.496 4.875 12.4293 4.875C12.356 4.875 12.2943 4.85167 12.2443 4.805C12.1943 4.75833 12.1693 4.68833 12.1693 4.595ZM14.7684 5.27C15.0984 5.27 15.3634 5.385 15.5634 5.615C15.7667 5.845 15.8684 6.19167 15.8684 6.655C15.8684 6.95833 15.8217 7.215 15.7284 7.425C15.6384 7.63167 15.51 7.78833 15.3434 7.895C15.18 7.99833 14.9867 8.05 14.7634 8.05C14.6267 8.05 14.505 8.03167 14.3984 7.995C14.2917 7.95833 14.2 7.91167 14.1234 7.855C14.05 7.795 13.9867 7.73 13.9334 7.66H13.9034C13.91 7.71667 13.9167 7.78833 13.9234 7.875C13.93 7.96167 13.9334 8.03667 13.9334 8.1V9.2H13.4934V5.32H13.8534L13.9134 5.685H13.9334C13.9867 5.60833 14.05 5.53833 14.1234 5.475C14.2 5.41167 14.29 5.36167 14.3934 5.325C14.5 5.28833 14.625 5.27 14.7684 5.27ZM14.6884 5.64C14.5084 5.64 14.3634 5.675 14.2534 5.745C14.1434 5.81167 14.0634 5.91333 14.0134 6.05C13.9634 6.18667 13.9367 6.36 13.9334 6.57V6.655C13.9334 6.875 13.9567 7.06167 14.0034 7.215C14.05 7.36833 14.1284 7.485 14.2384 7.565C14.3517 7.645 14.505 7.685 14.6984 7.685C14.8617 7.685 14.995 7.64 15.0984 7.55C15.205 7.46 15.2834 7.33833 15.3334 7.185C15.3867 7.02833 15.4134 6.85 15.4134 6.65C15.4134 6.34333 15.3534 6.09833 15.2334 5.915C15.1167 5.73167 14.935 5.64 14.6884 5.64ZM17.5195 5.27C17.6962 5.27 17.8545 5.30333 17.9945 5.37C18.1379 5.43667 18.2595 5.53833 18.3595 5.675H18.3845L18.4445 5.32H18.7945V8.045C18.7945 8.29833 18.7512 8.51 18.6645 8.68C18.5779 8.85333 18.4462 8.98333 18.2695 9.07C18.0929 9.15667 17.8679 9.2 17.5945 9.2C17.4012 9.2 17.2229 9.185 17.0595 9.155C16.8995 9.12833 16.7562 9.08667 16.6295 9.03V8.625C16.7162 8.66833 16.8112 8.705 16.9145 8.735C17.0179 8.76833 17.1295 8.79333 17.2495 8.81C17.3695 8.82667 17.4929 8.835 17.6195 8.835C17.8495 8.835 18.0295 8.76667 18.1595 8.63C18.2929 8.49667 18.3595 8.31333 18.3595 8.08V7.975C18.3595 7.935 18.3612 7.87833 18.3645 7.805C18.3679 7.72833 18.3712 7.675 18.3745 7.645H18.3545C18.2612 7.78167 18.1445 7.88333 18.0045 7.95C17.8679 8.01667 17.7079 8.05 17.5245 8.05C17.1779 8.05 16.9062 7.92833 16.7095 7.685C16.5162 7.44167 16.4195 7.10167 16.4195 6.665C16.4195 6.37833 16.4629 6.13167 16.5495 5.925C16.6395 5.715 16.7662 5.55333 16.9295 5.44C17.0929 5.32667 17.2895 5.27 17.5195 5.27ZM17.5795 5.64C17.4295 5.64 17.3012 5.68 17.1945 5.76C17.0912 5.84 17.0112 5.95667 16.9545 6.11C16.9012 6.26333 16.8745 6.45 16.8745 6.67C16.8745 7 16.9345 7.25333 17.0545 7.43C17.1779 7.60333 17.3562 7.69 17.5895 7.69C17.7262 7.69 17.8429 7.67333 17.9395 7.64C18.0362 7.60333 18.1162 7.54833 18.1795 7.475C18.2429 7.39833 18.2895 7.30167 18.3195 7.185C18.3495 7.06833 18.3645 6.93 18.3645 6.77V6.665C18.3645 6.42167 18.3362 6.225 18.2795 6.075C18.2262 5.925 18.1412 5.815 18.0245 5.745C17.9079 5.675 17.7595 5.64 17.5795 5.64Z" fill="white"/>
</svg>
