<svg width="24" height="30" viewBox="0 0 24 30" fill="none" xmlns="http://www.w3.org/2000/svg">
<path d="M0 8.14875V26.71C0 28.5247 1.4701 29.9971 3.2842 29.9971H20.7119C22.5278 29.9971 23.9979 28.5247 23.9979 26.71V3.28703C23.9979 1.47237 22.5278 0 20.7119 0H8.14806L1.70547 6.44276L0 8.14875Z" fill="white"/>
<path d="M0.000906123 8.15656L1.70637 6.45057L8.14896 0.0078125H20.7119C22.5278 0.0078125 23.9979 1.48018 23.9979 3.29484V10.9338H0L0.000906123 8.15656Z" fill="#F6B569"/>
<path d="M0 8.14447L4.02198 9.03278C5.79896 9.40042 7.53792 8.25494 7.90455 6.47741L8.07292 5.55469C8.01951 5.81185 7.93351 6.05725 7.82126 6.28906C7.28988 7.38655 6.16467 8.14266 4.86385 8.14266H0V8.14447Z" fill="#C06D0C"/>
<g opacity="0.4">
<path d="M0 8.14875H4.86385C6.16467 8.14875 7.28898 7.39174 7.82126 6.29516C7.93351 6.06334 8.01951 5.81795 8.07292 5.56078C8.12361 5.33621 8.14806 5.10168 8.14806 4.86172V0L1.70547 6.44366L0 8.14875Z" fill="#EFEFEF"/>
</g>
<path d="M12.0033 25.6193C9.07399 25.6193 6.69141 23.1798 6.69141 20.1807C6.69141 17.1826 9.07399 14.7422 12.0033 14.7422C14.9327 14.7422 17.3153 17.1817 17.3153 20.1807C17.3153 23.1798 14.9318 25.6193 12.0033 25.6193ZM12.0033 15.7518C9.62981 15.7518 7.69894 17.7385 7.69894 20.1816C7.69894 22.6238 9.62981 24.6114 12.0033 24.6114C14.3769 24.6114 16.3078 22.6247 16.3078 20.1816C16.3069 17.7385 14.376 15.7518 12.0033 15.7518Z" fill="#F6B569"/>
<path d="M13.8932 19.6352L11.3784 18.1447C10.9539 17.893 10.418 18.199 10.418 18.6926V21.6726C10.418 22.1661 10.9548 22.4722 11.3784 22.2204L13.8932 20.73C14.3096 20.4837 14.3096 19.8815 13.8932 19.6352Z" fill="#F6B569"/>
<path d="M13.7942 5.27C14.0975 5.27 14.3242 5.34833 14.4742 5.505C14.6242 5.65833 14.6992 5.90833 14.6992 6.255V8H14.2642V6.275C14.2642 6.065 14.2192 5.90667 14.1292 5.8C14.0425 5.69333 13.9059 5.64 13.7192 5.64C13.4592 5.64 13.2725 5.715 13.1592 5.865C13.0492 6.015 12.9942 6.23333 12.9942 6.52V8H12.5592V6.275C12.5592 6.135 12.5392 6.01833 12.4992 5.925C12.4592 5.82833 12.3992 5.75667 12.3192 5.71C12.2392 5.66333 12.1359 5.64 12.0092 5.64C11.8292 5.64 11.6875 5.67833 11.5842 5.755C11.4809 5.82833 11.4059 5.93667 11.3592 6.08C11.3159 6.22333 11.2942 6.4 11.2942 6.61V8H10.8542V5.32H11.2092L11.2742 5.685H11.2992C11.3559 5.59167 11.4242 5.515 11.5042 5.455C11.5875 5.39167 11.6792 5.345 11.7792 5.315C11.8792 5.285 11.9825 5.27 12.0892 5.27C12.2959 5.27 12.4675 5.30667 12.6042 5.38C12.7442 5.45333 12.8459 5.56667 12.9092 5.72H12.9342C13.0242 5.56667 13.1459 5.45333 13.2992 5.38C13.4559 5.30667 13.6209 5.27 13.7942 5.27ZM17.8571 6.655C17.8571 6.87833 17.8271 7.07667 17.7671 7.25C17.7104 7.42 17.6271 7.565 17.5171 7.685C17.4104 7.805 17.2787 7.89667 17.1221 7.96C16.9687 8.02 16.7971 8.05 16.6071 8.05C16.4304 8.05 16.2671 8.02 16.1171 7.96C15.9671 7.89667 15.8371 7.805 15.7271 7.685C15.6171 7.565 15.5304 7.42 15.4671 7.25C15.4071 7.07667 15.3771 6.87833 15.3771 6.655C15.3771 6.35833 15.4271 6.10833 15.5271 5.905C15.6271 5.69833 15.7704 5.54167 15.9571 5.435C16.1437 5.325 16.3654 5.27 16.6221 5.27C16.8654 5.27 17.0787 5.325 17.2621 5.435C17.4487 5.54167 17.5937 5.69833 17.6971 5.905C17.8037 6.10833 17.8571 6.35833 17.8571 6.655ZM15.8321 6.655C15.8321 6.865 15.8587 7.04833 15.9121 7.205C15.9687 7.35833 16.0554 7.47667 16.1721 7.56C16.2887 7.64333 16.4371 7.685 16.6171 7.685C16.7971 7.685 16.9454 7.64333 17.0621 7.56C17.1787 7.47667 17.2637 7.35833 17.3171 7.205C17.3737 7.04833 17.4021 6.865 17.4021 6.655C17.4021 6.44167 17.3737 6.26 17.3171 6.11C17.2604 5.96 17.1737 5.845 17.0571 5.765C16.9437 5.68167 16.7954 5.64 16.6121 5.64C16.3387 5.64 16.1404 5.73 16.0171 5.91C15.8937 6.09 15.8321 6.33833 15.8321 6.655ZM19.0467 8L18.0317 5.32H18.5017L19.0717 6.9C19.0984 6.97333 19.1267 7.055 19.1567 7.145C19.1867 7.235 19.2134 7.32167 19.2367 7.405C19.2601 7.485 19.2767 7.55333 19.2867 7.61H19.3067C19.3201 7.55333 19.3384 7.48333 19.3617 7.4C19.3884 7.31667 19.4167 7.23 19.4467 7.14C19.4801 7.05 19.5084 6.97 19.5317 6.9L20.1017 5.32H20.5717L19.5517 8H19.0467Z" fill="white"/>
</svg>
