<svg width="24" height="30" viewBox="0 0 24 30" fill="none" xmlns="http://www.w3.org/2000/svg">
<path d="M0 8.14955V26.7127C0 28.5275 1.47029 30 3.28462 30H20.7136C22.5297 30 24 28.5275 24 26.7127V3.28735C24 1.47251 22.5297 0 20.7136 0H8.14999L1.70659 6.44338L0 8.14955Z" fill="white"/>
<path d="M0 8.14955L1.70568 6.44338L8.14908 0H20.7136C22.5297 0 24 1.47251 24 3.28735V10.927H0V8.14955Z" fill="#4F87C2"/>
<path d="M0 8.144L4.02248 9.03215C5.79969 9.39972 7.53887 8.25445 7.90554 6.47724L8.07394 5.55469C8.02052 5.81181 7.93451 6.05716 7.82225 6.28893C7.29081 7.38622 6.16545 8.14219 4.86446 8.14219H0V8.144Z" fill="#356597"/>
<g opacity="0.4">
<path d="M0 8.14955H4.86446C6.16545 8.14955 7.29081 7.39246 7.82225 6.29577C7.93451 6.06394 8.02052 5.81851 8.07394 5.56132C8.12464 5.33673 8.14908 5.10218 8.14908 4.8622V0L1.70568 6.44429L0 8.14955Z" fill="#EFEFEF"/>
</g>
<path d="M11.7151 16.3438H4.76562V17.3523H11.7151V16.3438Z" fill="#4F87C2"/>
<path d="M19.2189 16.3438H14.7266V17.3523H19.2189V16.3438Z" fill="#4F87C2"/>
<path d="M14.2284 23.9531H4.76562V24.9617H14.2284V23.9531Z" fill="#4F87C2"/>
<path d="M19.2229 20.1484H12.2734V21.157H19.2229V20.1484Z" fill="#4F87C2"/>
<path d="M9.25799 20.1484H4.76562V21.157H9.25799V20.1484Z" fill="#4F87C2"/>
<path d="M12.6221 8.05C12.2887 8.05 12.0221 7.935 11.8221 7.705C11.6221 7.47167 11.5221 7.125 11.5221 6.665C11.5221 6.205 11.6221 5.85833 11.8221 5.625C12.0254 5.38833 12.2937 5.27 12.6271 5.27C12.7671 5.27 12.8887 5.28833 12.9921 5.325C13.0954 5.35833 13.1854 5.405 13.2621 5.465C13.3387 5.525 13.4037 5.59167 13.4571 5.665H13.4871C13.4837 5.62167 13.4771 5.55833 13.4671 5.475C13.4604 5.38833 13.4571 5.32 13.4571 5.27V4.2H13.8971V8H13.5421L13.4771 7.64H13.4571C13.4037 7.71667 13.3387 7.78667 13.2621 7.85C13.1854 7.91 13.0937 7.95833 12.9871 7.995C12.8837 8.03167 12.7621 8.05 12.6221 8.05ZM12.6921 7.685C12.9754 7.685 13.1737 7.60833 13.2871 7.455C13.4037 7.29833 13.4621 7.06333 13.4621 6.75V6.67C13.4621 6.33667 13.4071 6.08167 13.2971 5.905C13.1871 5.725 12.9837 5.635 12.6871 5.635C12.4504 5.635 12.2721 5.73 12.1521 5.92C12.0354 6.10667 11.9771 6.35833 11.9771 6.675C11.9771 6.995 12.0354 7.24333 12.1521 7.42C12.2721 7.59667 12.4521 7.685 12.6921 7.685ZM17.0782 6.655C17.0782 6.87833 17.0482 7.07667 16.9882 7.25C16.9316 7.42 16.8482 7.565 16.7382 7.685C16.6316 7.805 16.4999 7.89667 16.3432 7.96C16.1899 8.02 16.0182 8.05 15.8282 8.05C15.6516 8.05 15.4882 8.02 15.3382 7.96C15.1882 7.89667 15.0582 7.805 14.9482 7.685C14.8382 7.565 14.7516 7.42 14.6882 7.25C14.6282 7.07667 14.5982 6.87833 14.5982 6.655C14.5982 6.35833 14.6482 6.10833 14.7482 5.905C14.8482 5.69833 14.9916 5.54167 15.1782 5.435C15.3649 5.325 15.5866 5.27 15.8432 5.27C16.0866 5.27 16.2999 5.325 16.4832 5.435C16.6699 5.54167 16.8149 5.69833 16.9182 5.905C17.0249 6.10833 17.0782 6.35833 17.0782 6.655ZM15.0532 6.655C15.0532 6.865 15.0799 7.04833 15.1332 7.205C15.1899 7.35833 15.2766 7.47667 15.3932 7.56C15.5099 7.64333 15.6582 7.685 15.8382 7.685C16.0182 7.685 16.1666 7.64333 16.2832 7.56C16.3999 7.47667 16.4849 7.35833 16.5382 7.205C16.5949 7.04833 16.6232 6.865 16.6232 6.655C16.6232 6.44167 16.5949 6.26 16.5382 6.11C16.4816 5.96 16.3949 5.845 16.2782 5.765C16.1649 5.68167 16.0166 5.64 15.8332 5.64C15.5599 5.64 15.3616 5.73 15.2382 5.91C15.1149 6.09 15.0532 6.33833 15.0532 6.655ZM18.8506 8.05C18.6139 8.05 18.4023 8.00167 18.2156 7.905C18.0323 7.80833 17.8873 7.65833 17.7806 7.455C17.6773 7.25167 17.6256 6.99167 17.6256 6.675C17.6256 6.345 17.6806 6.07667 17.7906 5.87C17.9006 5.66333 18.0489 5.51167 18.2356 5.415C18.4256 5.31833 18.6406 5.27 18.8806 5.27C19.0173 5.27 19.1489 5.285 19.2756 5.315C19.4023 5.34167 19.5056 5.375 19.5856 5.415L19.4506 5.78C19.3706 5.75 19.2773 5.72167 19.1706 5.695C19.0639 5.66833 18.9639 5.655 18.8706 5.655C18.6906 5.655 18.5423 5.69333 18.4256 5.77C18.3089 5.84667 18.2223 5.96 18.1656 6.11C18.1089 6.26 18.0806 6.44667 18.0806 6.67C18.0806 6.88333 18.1089 7.065 18.1656 7.215C18.2223 7.365 18.3073 7.47833 18.4206 7.555C18.5339 7.63167 18.6756 7.67 18.8456 7.67C18.9923 7.67 19.1206 7.655 19.2306 7.625C19.3439 7.595 19.4473 7.55833 19.5406 7.515V7.905C19.4506 7.95167 19.3506 7.98667 19.2406 8.01C19.1339 8.03667 19.0039 8.05 18.8506 8.05Z" fill="white"/>
</svg>
