<svg width="24" height="30" viewBox="0 0 24 30" fill="none" xmlns="http://www.w3.org/2000/svg">
<path d="M0 8.14907V26.7111C0 28.5258 1.47024 29.9982 3.2845 29.9982H20.7137C22.5298 29.9982 24 28.5258 24 26.7111V3.28715C24 1.47243 22.5298 0 20.7137 0H8.14968L1.70562 6.44301L0 8.14907Z" fill="white"/>
<path d="M0 8.14907L1.70562 6.44301L8.14877 0H20.7137C22.5298 0 24 1.47243 24 3.28715V10.9264H0V8.14907Z" fill="#DB676A"/>
<path d="M0 8.15171L4.02233 9.03983C5.79947 9.40739 7.53859 8.26216 7.90524 6.48502L8.07363 5.5625C8.02022 5.81961 7.93421 6.06495 7.82195 6.29671C7.29053 7.39396 6.16522 8.1499 4.86428 8.1499H0V8.15171Z" fill="#A5272A"/>
<g opacity="0.4">
<path d="M0 8.14997H4.86428C6.16522 8.14997 7.28963 7.39293 7.82195 6.29631C7.93421 6.06448 8.02022 5.81908 8.07363 5.5619C8.12433 5.33733 8.14877 5.10279 8.14877 4.86282V0L1.70562 6.44391L0 8.14997Z" fill="#EFEFEF"/>
</g>
<path d="M13.2645 5.27C13.5945 5.27 13.8595 5.385 14.0595 5.615C14.2628 5.845 14.3645 6.19167 14.3645 6.655C14.3645 6.95833 14.3178 7.215 14.2245 7.425C14.1345 7.63167 14.0061 7.78833 13.8395 7.895C13.6761 7.99833 13.4828 8.05 13.2595 8.05C13.1228 8.05 13.0011 8.03167 12.8945 7.995C12.7878 7.95833 12.6961 7.91167 12.6195 7.855C12.5461 7.795 12.4828 7.73 12.4295 7.66H12.3995C12.4061 7.71667 12.4128 7.78833 12.4195 7.875C12.4261 7.96167 12.4295 8.03667 12.4295 8.1V9.2H11.9895V5.32H12.3495L12.4095 5.685H12.4295C12.4828 5.60833 12.5461 5.53833 12.6195 5.475C12.6961 5.41167 12.7861 5.36167 12.8895 5.325C12.9961 5.28833 13.1211 5.27 13.2645 5.27ZM13.1845 5.64C13.0045 5.64 12.8595 5.675 12.7495 5.745C12.6395 5.81167 12.5595 5.91333 12.5095 6.05C12.4595 6.18667 12.4328 6.36 12.4295 6.57V6.655C12.4295 6.875 12.4528 7.06167 12.4995 7.215C12.5461 7.36833 12.6245 7.485 12.7345 7.565C12.8478 7.645 13.0011 7.685 13.1945 7.685C13.3578 7.685 13.4911 7.64 13.5945 7.55C13.7011 7.46 13.7795 7.33833 13.8295 7.185C13.8828 7.02833 13.9095 6.85 13.9095 6.65C13.9095 6.34333 13.8495 6.09833 13.7295 5.915C13.6128 5.73167 13.4311 5.64 13.1845 5.64ZM16.0156 8.05C15.6823 8.05 15.4156 7.935 15.2156 7.705C15.0156 7.47167 14.9156 7.125 14.9156 6.665C14.9156 6.205 15.0156 5.85833 15.2156 5.625C15.419 5.38833 15.6873 5.27 16.0206 5.27C16.1606 5.27 16.2823 5.28833 16.3856 5.325C16.489 5.35833 16.579 5.405 16.6556 5.465C16.7323 5.525 16.7973 5.59167 16.8506 5.665H16.8806C16.8773 5.62167 16.8706 5.55833 16.8606 5.475C16.854 5.38833 16.8506 5.32 16.8506 5.27V4.2H17.2906V8H16.9356L16.8706 7.64H16.8506C16.7973 7.71667 16.7323 7.78667 16.6556 7.85C16.579 7.91 16.4873 7.95833 16.3806 7.995C16.2773 8.03167 16.1556 8.05 16.0156 8.05ZM16.0856 7.685C16.369 7.685 16.5673 7.60833 16.6806 7.455C16.7973 7.29833 16.8556 7.06333 16.8556 6.75V6.67C16.8556 6.33667 16.8006 6.08167 16.6906 5.905C16.5806 5.725 16.3773 5.635 16.0806 5.635C15.844 5.635 15.6656 5.73 15.5456 5.92C15.429 6.10667 15.3706 6.35833 15.3706 6.675C15.3706 6.995 15.429 7.24333 15.5456 7.42C15.6656 7.59667 15.8456 7.685 16.0856 7.685ZM19.3768 5.66H18.7018V8H18.2618V5.66H17.7918V5.455L18.2618 5.305V5.15C18.2618 4.92 18.2951 4.73333 18.3618 4.59C18.4318 4.44667 18.5318 4.34167 18.6618 4.275C18.7918 4.20833 18.9485 4.175 19.1318 4.175C19.2385 4.175 19.3351 4.185 19.4218 4.205C19.5118 4.22167 19.5885 4.24167 19.6518 4.265L19.5368 4.61C19.4835 4.59333 19.4218 4.57667 19.3518 4.56C19.2818 4.54333 19.2101 4.535 19.1368 4.535C18.9901 4.535 18.8801 4.585 18.8068 4.685C18.7368 4.78167 18.7018 4.935 18.7018 5.145V5.32H19.3768V5.66Z" fill="white"/>
<path d="M8.06623 27.4521C7.86344 27.4521 7.55563 27.3815 7.29942 27.0212C7.02511 26.6355 6.69377 25.8452 7.54839 24.881C8.078 24.2835 8.93081 23.7693 9.81712 23.3519C10.612 21.5023 11.3 19.6591 11.7246 18.2341C11.7418 18.1771 11.7581 18.121 11.7744 18.0649C11.0058 16.4842 10.6953 15.3715 11.0339 14.6699C11.1543 14.4209 11.4123 14.105 11.9609 14.0172C12.3792 13.9502 12.7395 14.0805 12.9749 14.3847C13.2727 14.7704 13.5144 15.5309 12.8499 17.9662C13.2157 18.6904 13.6013 19.3739 13.8367 19.7922C14.2315 20.492 14.7783 21.1565 15.3441 21.6979C16.588 21.5132 17.7341 21.4978 18.3371 21.8255C18.7807 22.0673 18.9681 22.4928 18.8368 22.9644C18.6693 23.5656 18.2701 23.934 17.7124 24.0019C16.8406 24.1069 15.8311 23.4397 15.1377 22.8612C15.1015 22.8314 15.0652 22.8006 15.029 22.7689C14.6841 22.8314 14.3066 22.9101 13.8947 23.0106C12.7006 23.2994 11.5499 23.6869 10.5884 24.1115C10.5749 24.1423 10.5622 24.1721 10.5486 24.2011C9.56815 26.4336 8.87468 27.3751 8.15314 27.4485C8.12779 27.4503 8.09792 27.4521 8.06623 27.4521ZM9.11459 24.8864C8.929 25.0068 8.76332 25.1272 8.62119 25.2467C7.82813 25.9085 8.00105 26.2607 8.10335 26.411C8.23462 26.3159 8.55691 25.9909 9.11459 24.8864ZM16.4576 22.5869C16.9148 22.8775 17.3204 23.0341 17.5902 23.0006C17.6617 22.9916 17.7812 22.9771 17.86 22.71C17.7142 22.6177 17.2606 22.5362 16.4576 22.5869ZM12.4344 19.3404C12.0315 20.5708 11.5544 21.8011 11.1443 22.7979C11.9347 22.5036 12.629 22.3008 12.993 22.2003C13.3678 22.0971 13.7598 22.0003 14.1563 21.9143C13.6819 21.3919 13.2628 20.8261 12.9586 20.2856C12.7739 19.9579 12.5983 19.6428 12.4344 19.3404ZM12.1719 15.0076C12.1601 15.0076 12.1438 15.0085 12.1212 15.0121C11.9772 15.0357 11.9546 15.0818 11.9428 15.1072C11.8242 15.3525 11.9392 15.855 12.1655 16.4525C12.3602 15.357 12.2153 15.0583 12.1818 15.0076C12.1791 15.0076 12.1755 15.0076 12.1719 15.0076Z" fill="#DB676A"/>
</svg>
