<svg width="24" height="30" viewBox="0 0 24 30" fill="none" xmlns="http://www.w3.org/2000/svg">
<path d="M0 8.15021V26.7128C0 28.5275 1.47024 30 3.2845 30H20.7137C22.5298 30 24 28.5275 24 26.7128V3.28725C24 1.47247 22.5298 0 20.7137 0H8.14968L1.70653 6.44319L0 8.15021Z" fill="white"/>
<path d="M0 8.1493L1.70562 6.44319L8.14877 0H20.7137C22.5298 0 24 1.47247 24 3.28725V10.9267H0V8.1493Z" fill="#CF7ADC"/>
<path d="M0.00390625 8.14464L4.02624 9.03301C5.80338 9.40068 7.5425 8.25512 7.90915 6.47747L8.07754 5.55469C8.02413 5.81187 7.93812 6.05728 7.82586 6.28911C7.29444 7.38667 6.16913 8.14283 4.86818 8.14283H0.00390625V8.14464Z" fill="#922AA2"/>
<g opacity="0.4">
<path d="M0.00390625 8.1493H4.86818C6.16913 8.1493 7.29353 7.39224 7.82586 6.29558C7.93812 6.06376 8.02413 5.81834 8.07754 5.56116C8.12824 5.33658 8.15268 5.10203 8.15268 4.86205V0L1.70953 6.4441L0.00390625 8.1493Z" fill="#EFEFEF"/>
</g>
<path d="M17.5295 17.5703H10.241C9.31674 17.5703 8.56445 18.3226 8.56445 19.2469V24.7112C8.56445 25.6355 9.31674 26.3878 10.241 26.3878H17.5295C18.4538 26.3878 19.2061 25.6355 19.2061 24.7112V19.2469C19.2061 18.3217 18.4538 17.5703 17.5295 17.5703ZM10.241 18.5779H17.5295C17.8979 18.5779 18.1976 18.8775 18.1976 19.246V23.9879L18.1695 23.9797C18.0853 24.2595 17.8219 24.455 17.5295 24.455H10.241C9.97669 24.455 9.73679 24.2993 9.62997 24.0576L9.57294 24.0829V19.246C9.57294 18.8775 9.87259 18.5779 10.241 18.5779Z" fill="#CF7ADC"/>
<path d="M15.5118 16.2936L16.3374 15.7143C16.0233 15.2671 15.51 15 14.965 15H7.67659C6.75229 15 6 15.7523 6 16.6766V22.4351H7.00849V16.6766C7.00849 16.3081 7.30814 16.0085 7.67659 16.0085H14.965C15.1823 16.0085 15.3869 16.1153 15.5118 16.2936Z" fill="#CF7ADC"/>
<path d="M11.8487 6.655C11.8487 6.87833 11.8188 7.07667 11.7588 7.25C11.7021 7.42 11.6188 7.565 11.5088 7.685C11.4021 7.805 11.2704 7.89667 11.1138 7.96C10.9604 8.02 10.7888 8.05 10.5988 8.05C10.4221 8.05 10.2588 8.02 10.1088 7.96C9.95875 7.89667 9.82875 7.805 9.71875 7.685C9.60875 7.565 9.52208 7.42 9.45875 7.25C9.39875 7.07667 9.36875 6.87833 9.36875 6.655C9.36875 6.35833 9.41875 6.10833 9.51875 5.905C9.61875 5.69833 9.76208 5.54167 9.94875 5.435C10.1354 5.325 10.3571 5.27 10.6138 5.27C10.8571 5.27 11.0704 5.325 11.2538 5.435C11.4404 5.54167 11.5854 5.69833 11.6888 5.905C11.7954 6.10833 11.8487 6.35833 11.8487 6.655ZM9.82375 6.655C9.82375 6.865 9.85042 7.04833 9.90375 7.205C9.96042 7.35833 10.0471 7.47667 10.1638 7.56C10.2804 7.64333 10.4288 7.685 10.6088 7.685C10.7888 7.685 10.9371 7.64333 11.0538 7.56C11.1704 7.47667 11.2554 7.35833 11.3088 7.205C11.3654 7.04833 11.3938 6.865 11.3938 6.655C11.3938 6.44167 11.3654 6.26 11.3088 6.11C11.2521 5.96 11.1654 5.845 11.0488 5.765C10.9354 5.68167 10.7871 5.64 10.6038 5.64C10.3304 5.64 10.1321 5.73 10.0088 5.91C9.88542 6.09 9.82375 6.33833 9.82375 6.655ZM13.4411 7.69C13.5078 7.69 13.5761 7.685 13.6461 7.675C13.7161 7.66167 13.7728 7.64833 13.8161 7.635V7.97C13.7694 7.99333 13.7028 8.01167 13.6161 8.025C13.5294 8.04167 13.4461 8.05 13.3661 8.05C13.2261 8.05 13.0961 8.02667 12.9761 7.98C12.8594 7.93 12.7644 7.845 12.6911 7.725C12.6178 7.605 12.5811 7.43667 12.5811 7.22V5.66H12.2011V5.45L12.5861 5.275L12.7611 4.705H13.0211V5.32H13.7961V5.66H13.0211V7.21C13.0211 7.37333 13.0594 7.495 13.1361 7.575C13.2161 7.65167 13.3178 7.69 13.4411 7.69ZM14.7927 5.315C14.7927 5.37833 14.7894 5.44333 14.7827 5.51C14.7794 5.57667 14.7744 5.63667 14.7677 5.69H14.7977C14.8544 5.59667 14.9261 5.52 15.0127 5.46C15.0994 5.4 15.1961 5.355 15.3027 5.325C15.4094 5.29167 15.5194 5.275 15.6327 5.275C15.8494 5.275 16.0294 5.31 16.1727 5.38C16.3194 5.44667 16.4294 5.55167 16.5027 5.695C16.5761 5.83833 16.6127 6.025 16.6127 6.255V8H16.1777V6.285C16.1777 6.06833 16.1294 5.90667 16.0327 5.8C15.9361 5.69333 15.7844 5.64 15.5777 5.64C15.3777 5.64 15.2211 5.67833 15.1077 5.755C14.9944 5.82833 14.9127 5.93833 14.8627 6.085C14.8161 6.22833 14.7927 6.405 14.7927 6.615V8H14.3527V4.2H14.7927V5.315ZM18.4786 5.27C18.7086 5.27 18.9052 5.32 19.0686 5.42C19.2352 5.52 19.3619 5.66167 19.4486 5.845C19.5386 6.025 19.5836 6.23667 19.5836 6.48V6.745H17.7486C17.7552 7.04833 17.8319 7.28 17.9786 7.44C18.1286 7.59667 18.3369 7.675 18.6036 7.675C18.7736 7.675 18.9236 7.66 19.0536 7.63C19.1869 7.59667 19.3236 7.55 19.4636 7.49V7.875C19.3269 7.935 19.1919 7.97833 19.0586 8.005C18.9252 8.035 18.7669 8.05 18.5836 8.05C18.3302 8.05 18.1052 7.99833 17.9086 7.895C17.7152 7.79167 17.5636 7.63833 17.4536 7.435C17.3469 7.22833 17.2936 6.97667 17.2936 6.68C17.2936 6.38667 17.3419 6.135 17.4386 5.925C17.5386 5.715 17.6769 5.55333 17.8536 5.44C18.0336 5.32667 18.2419 5.27 18.4786 5.27ZM18.4736 5.63C18.2636 5.63 18.0969 5.69833 17.9736 5.835C17.8536 5.96833 17.7819 6.155 17.7586 6.395H19.1236C19.1236 6.24167 19.1002 6.10833 19.0536 5.995C19.0069 5.88167 18.9352 5.79333 18.8386 5.73C18.7452 5.66333 18.6236 5.63 18.4736 5.63ZM21.5158 5.27C21.5658 5.27 21.6192 5.27333 21.6758 5.28C21.7358 5.28333 21.7875 5.29 21.8308 5.3L21.7758 5.705C21.7325 5.695 21.6842 5.68667 21.6308 5.68C21.5808 5.67333 21.5325 5.67 21.4858 5.67C21.3825 5.67 21.2842 5.69167 21.1908 5.735C21.0975 5.77833 21.0142 5.84 20.9408 5.92C20.8675 5.99667 20.8092 6.09 20.7658 6.2C20.7258 6.31 20.7058 6.43333 20.7058 6.57V8H20.2658V5.32H20.6258L20.6758 5.81H20.6958C20.7525 5.71 20.8208 5.62 20.9008 5.54C20.9808 5.45667 21.0725 5.39167 21.1758 5.345C21.2792 5.295 21.3925 5.27 21.5158 5.27Z" fill="white"/>
</svg>
