<svg width="25" height="30" viewBox="0 0 25 30" fill="none" xmlns="http://www.w3.org/2000/svg">
<path d="M0.00390625 8.14955V26.7127C0.00390625 28.5275 1.47409 30 3.28828 30H20.7168C22.5328 30 24.003 28.5275 24.003 26.7127V3.28735C24.003 1.47252 22.5328 0 20.7168 0H8.15328L1.71037 6.44338L0.00390625 8.14955Z" fill="white"/>
<path d="M0.000906169 8.14955L1.70646 6.44338L8.14937 0H20.7129C22.5289 0 23.9991 1.47252 23.9991 3.28735V10.927H0V8.14955H0.000906169Z" fill="#50984B"/>
<path d="M0.00390625 8.15253L4.02608 9.04093C5.80316 9.40861 7.54221 8.26302 7.90885 6.48531L8.07723 5.5625C8.02382 5.81969 7.93782 6.06511 7.82556 6.29694C7.29416 7.39454 6.16889 8.15072 4.868 8.15072H0.00390625V8.15253Z" fill="#488943"/>
<g opacity="0.4">
<path d="M0.00390625 8.14955H4.868C6.16889 8.14955 7.29326 7.39246 7.82556 6.29577C7.93782 6.06394 8.02382 5.81852 8.07723 5.56133C8.12793 5.33674 8.15237 5.10218 8.15237 4.8622V0L1.70946 6.44429L0.00390625 8.14955Z" fill="#EFEFEF"/>
</g>
<path d="M19.844 24.7447H4.14453V15.9531H19.844V24.7447ZM5.15302 23.7368H18.8364V16.9629H5.15302V23.7368Z" fill="#50984B"/>
<path d="M9.57099 16.4609H8.5625V24.2437H9.57099V16.4609Z" fill="#50984B"/>
<path d="M19.3403 19.8438H4.64844V20.8522H19.3403V19.8438Z" fill="#50984B"/>
<path d="M13.3959 6.63L12.4709 5.32H12.9709L13.6609 6.33L14.3459 5.32H14.8409L13.9159 6.63L14.8909 8H14.3909L13.6609 6.93L12.9209 8H12.4259L13.3959 6.63ZM15.8474 8H15.4074V4.2H15.8474V8ZM18.4415 7.26C18.4415 7.43333 18.3982 7.57833 18.3115 7.695C18.2248 7.81167 18.1015 7.9 17.9415 7.96C17.7815 8.02 17.5915 8.05 17.3715 8.05C17.1848 8.05 17.0232 8.035 16.8865 8.005C16.7532 7.975 16.6348 7.93333 16.5315 7.88V7.48C16.6382 7.53333 16.7665 7.58333 16.9165 7.63C17.0698 7.67333 17.2248 7.695 17.3815 7.695C17.6048 7.695 17.7665 7.66 17.8665 7.59C17.9665 7.51667 18.0165 7.42 18.0165 7.3C18.0165 7.23333 17.9982 7.17333 17.9615 7.12C17.9248 7.06667 17.8582 7.01333 17.7615 6.96C17.6682 6.90667 17.5332 6.84667 17.3565 6.78C17.1832 6.71333 17.0348 6.64667 16.9115 6.58C16.7882 6.51333 16.6932 6.43333 16.6265 6.34C16.5598 6.24667 16.5265 6.12667 16.5265 5.98C16.5265 5.75333 16.6182 5.57833 16.8015 5.455C16.9882 5.33167 17.2315 5.27 17.5315 5.27C17.6948 5.27 17.8465 5.28667 17.9865 5.32C18.1298 5.35 18.2632 5.39333 18.3865 5.45L18.2365 5.8C18.1632 5.76667 18.0848 5.73833 18.0015 5.715C17.9215 5.68833 17.8398 5.66833 17.7565 5.655C17.6732 5.63833 17.5882 5.63 17.5015 5.63C17.3215 5.63 17.1832 5.66 17.0865 5.72C16.9932 5.77667 16.9465 5.855 16.9465 5.955C16.9465 6.02833 16.9682 6.09167 17.0115 6.145C17.0548 6.195 17.1265 6.245 17.2265 6.295C17.3298 6.34167 17.4665 6.39833 17.6365 6.465C17.8065 6.52833 17.9515 6.59333 18.0715 6.66C18.1915 6.72667 18.2832 6.80833 18.3465 6.905C18.4098 6.99833 18.4415 7.11667 18.4415 7.26Z" fill="white"/>
</svg>
