<svg width="25" height="30" viewBox="0 0 25 30" fill="none" xmlns="http://www.w3.org/2000/svg">
<path d="M0.00390625 8.14907V26.7111C0.00390625 28.5258 1.47408 29.9982 3.28827 29.9982H20.7168C22.5328 29.9982 24.003 28.5258 24.003 26.7111V3.28716C24.003 1.47243 22.5328 0 20.7168 0H8.15327L1.71037 6.44301L0.00390625 8.14907Z" fill="white"/>
<path d="M0.000906169 8.14907L1.70646 6.443L8.14937 0H20.7129C22.5289 0 23.9991 1.47243 23.9991 3.28716V10.9264H0L0.000906169 8.14907Z" fill="#6972B1"/>
<path d="M0.00390625 8.15238L4.02608 9.04073C5.80315 9.40838 7.54221 8.26286 7.90885 6.48526L8.07723 5.5625C8.02382 5.81968 7.93781 6.06508 7.82556 6.2969C7.29415 7.39443 6.16889 8.15057 4.868 8.15057H0.00390625V8.15238Z" fill="#464E86"/>
<g opacity="0.4">
<path d="M0.00390625 8.14907H4.868C6.16889 8.14907 7.29415 7.39202 7.82556 6.2954C7.93781 6.06358 8.02382 5.81817 8.07723 5.561C8.12792 5.33642 8.15237 5.10188 8.15237 4.86191V0L1.70946 6.44391L0.00390625 8.14907Z" fill="#EFEFEF"/>
</g>
<path d="M9.77919 24.4766C10.3261 24.25 10.5858 23.6229 10.3593 23.076C10.1328 22.529 9.50589 22.2693 8.95899 22.4959C8.4121 22.7226 8.15236 23.3496 8.37885 23.8966C8.60534 24.4435 9.23229 24.7032 9.77919 24.4766Z" fill="#6972B1"/>
<path d="M9.36592 24.8178C8.63173 24.8178 8.03516 24.2203 8.03516 23.487C8.03516 22.7528 8.63264 22.1562 9.36592 22.1562C10.1001 22.1562 10.6967 22.7537 10.6967 23.487C10.6976 24.2203 10.1001 24.8178 9.36592 24.8178ZM9.36592 22.6732C8.9178 22.6732 8.55298 23.038 8.55298 23.4861C8.55298 23.9342 8.9178 24.2991 9.36592 24.2991C9.81404 24.2991 10.1789 23.9342 10.1789 23.4861C10.1798 23.038 9.81494 22.6732 9.36592 22.6732Z" fill="#6972B1"/>
<path d="M14.6344 23.425C15.2263 23.425 15.7062 22.9451 15.7062 22.3531C15.7062 21.7611 15.2263 21.2812 14.6344 21.2812C14.0424 21.2812 13.5625 21.7611 13.5625 22.3531C13.5625 22.9451 14.0424 23.425 14.6344 23.425Z" fill="#6972B1"/>
<path d="M14.6315 23.685C13.8974 23.685 13.3008 23.0875 13.3008 22.3542C13.3008 21.62 13.8983 21.0234 14.6315 21.0234C15.3657 21.0234 15.9623 21.6209 15.9623 22.3542C15.9632 23.0884 15.3657 23.685 14.6315 23.685ZM14.6315 21.5413C14.1834 21.5413 13.8186 21.9061 13.8186 22.3542C13.8186 22.8023 14.1834 23.1672 14.6315 23.1672C15.0797 23.1672 15.4445 22.8023 15.4445 22.3542C15.4454 21.9061 15.0806 21.5413 14.6315 21.5413Z" fill="#6972B1"/>
<path d="M10.702 23.491H9.84375V16.7012L15.9644 15.8672V22.3582H15.1062V16.8497L10.702 17.451V23.491Z" fill="#6972B1"/>
<path d="M13.5598 5.27C13.8632 5.27 14.0898 5.34833 14.2398 5.505C14.3898 5.65833 14.4648 5.90833 14.4648 6.255V8H14.0298V6.275C14.0298 6.065 13.9848 5.90667 13.8948 5.8C13.8082 5.69333 13.6715 5.64 13.4848 5.64C13.2248 5.64 13.0382 5.715 12.9248 5.865C12.8148 6.015 12.7598 6.23333 12.7598 6.52V8H12.3248V6.275C12.3248 6.135 12.3048 6.01833 12.2648 5.925C12.2248 5.82833 12.1648 5.75667 12.0848 5.71C12.0048 5.66333 11.9015 5.64 11.7748 5.64C11.5948 5.64 11.4532 5.67833 11.3498 5.755C11.2465 5.82833 11.1715 5.93667 11.1248 6.08C11.0815 6.22333 11.0598 6.4 11.0598 6.61V8H10.6198V5.32H10.9748L11.0398 5.685H11.0648C11.1215 5.59167 11.1898 5.515 11.2698 5.455C11.3532 5.39167 11.4448 5.345 11.5448 5.315C11.6448 5.285 11.7482 5.27 11.8548 5.27C12.0615 5.27 12.2332 5.30667 12.3698 5.38C12.5098 5.45333 12.6115 5.56667 12.6748 5.72H12.6998C12.7898 5.56667 12.9115 5.45333 13.0648 5.38C13.2215 5.30667 13.3865 5.27 13.5598 5.27ZM16.5677 5.27C16.8977 5.27 17.1627 5.385 17.3627 5.615C17.566 5.845 17.6677 6.19167 17.6677 6.655C17.6677 6.95833 17.621 7.215 17.5277 7.425C17.4377 7.63167 17.3093 7.78833 17.1427 7.895C16.9793 7.99833 16.786 8.05 16.5627 8.05C16.426 8.05 16.3043 8.03167 16.1977 7.995C16.091 7.95833 15.9993 7.91167 15.9227 7.855C15.8493 7.795 15.786 7.73 15.7327 7.66H15.7027C15.7093 7.71667 15.716 7.78833 15.7227 7.875C15.7293 7.96167 15.7327 8.03667 15.7327 8.1V9.2H15.2927V5.32H15.6527L15.7127 5.685H15.7327C15.786 5.60833 15.8493 5.53833 15.9227 5.475C15.9993 5.41167 16.0893 5.36167 16.1927 5.325C16.2993 5.28833 16.4243 5.27 16.5677 5.27ZM16.4877 5.64C16.3077 5.64 16.1627 5.675 16.0527 5.745C15.9427 5.81167 15.8627 5.91333 15.8127 6.05C15.7627 6.18667 15.736 6.36 15.7327 6.57V6.655C15.7327 6.875 15.756 7.06167 15.8027 7.215C15.8493 7.36833 15.9277 7.485 16.0377 7.565C16.151 7.645 16.3043 7.685 16.4977 7.685C16.661 7.685 16.7943 7.64 16.8977 7.55C17.0043 7.46 17.0827 7.33833 17.1327 7.185C17.186 7.02833 17.2127 6.85 17.2127 6.65C17.2127 6.34333 17.1527 6.09833 17.0327 5.915C16.916 5.73167 16.7343 5.64 16.4877 5.64ZM20.4088 5.265C20.4088 5.425 20.3788 5.56333 20.3188 5.68C20.2588 5.79667 20.1722 5.89167 20.0588 5.965C19.9488 6.03833 19.8188 6.09 19.6688 6.12V6.14C19.9555 6.17333 20.1688 6.26333 20.3088 6.41C20.4488 6.55667 20.5188 6.74833 20.5188 6.985C20.5188 7.19167 20.4705 7.37667 20.3738 7.54C20.2772 7.7 20.1272 7.825 19.9238 7.915C19.7238 8.005 19.4655 8.05 19.1488 8.05C18.9622 8.05 18.7888 8.035 18.6288 8.005C18.4688 7.97833 18.3155 7.92833 18.1688 7.855V7.445C18.3188 7.51833 18.4805 7.57667 18.6538 7.62C18.8272 7.66 18.9938 7.68 19.1538 7.68C19.4738 7.68 19.7038 7.61833 19.8438 7.495C19.9872 7.36833 20.0588 7.195 20.0588 6.975C20.0588 6.825 20.0188 6.705 19.9388 6.615C19.8622 6.52167 19.7488 6.45333 19.5988 6.41C19.4488 6.36667 19.2688 6.345 19.0588 6.345H18.7138V5.97H19.0638C19.2605 5.97 19.4238 5.94167 19.5538 5.885C19.6872 5.82833 19.7872 5.75 19.8538 5.65C19.9238 5.54667 19.9588 5.42833 19.9588 5.295C19.9588 5.12167 19.9005 4.98833 19.7838 4.895C19.6672 4.79833 19.5088 4.75 19.3088 4.75C19.1822 4.75 19.0672 4.76333 18.9638 4.79C18.8605 4.81333 18.7638 4.84833 18.6738 4.895C18.5872 4.93833 18.4988 4.99 18.4088 5.05L18.1888 4.75C18.2755 4.68333 18.3738 4.62167 18.4838 4.565C18.5972 4.50833 18.7222 4.46333 18.8588 4.43C18.9955 4.39667 19.1438 4.38 19.3038 4.38C19.6772 4.38 19.9538 4.46333 20.1338 4.63C20.3172 4.79667 20.4088 5.00833 20.4088 5.265Z" fill="white"/>
</svg>
