<svg width="25" height="30" viewBox="0 0 25 30" fill="none" xmlns="http://www.w3.org/2000/svg">
<path d="M0.00390625 8.14907V26.7111C0.00390625 28.5258 1.47408 29.9982 3.28827 29.9982H20.7168C22.5328 29.9982 24.003 28.5258 24.003 26.7111V3.28716C24.003 1.47243 22.5328 0 20.7168 0H8.15327L1.71037 6.44301L0.00390625 8.14907Z" fill="white"/>
<path d="M0.000906169 8.14907L1.70646 6.443L8.14937 0H20.7129C22.5289 0 23.9991 1.47243 23.9991 3.28716V10.9264H0L0.000906169 8.14907Z" fill="#6972B1"/>
<path d="M0.00390625 8.15238L4.02608 9.04073C5.80315 9.40838 7.54221 8.26286 7.90885 6.48526L8.07723 5.5625C8.02382 5.81968 7.93781 6.06508 7.82556 6.2969C7.29415 7.39443 6.16889 8.15057 4.868 8.15057H0.00390625V8.15238Z" fill="#464E86"/>
<g opacity="0.4">
<path d="M0.00390625 8.14907H4.868C6.16889 8.14907 7.29415 7.39202 7.82556 6.2954C7.93781 6.06358 8.02382 5.81817 8.07723 5.561C8.12792 5.33642 8.15237 5.10188 8.15237 4.86191V0L1.70946 6.44391L0.00390625 8.14907Z" fill="#EFEFEF"/>
</g>
<path d="M13.5598 5.27C13.8632 5.27 14.0898 5.34833 14.2398 5.505C14.3898 5.65833 14.4648 5.90833 14.4648 6.255V8H14.0298V6.275C14.0298 6.065 13.9848 5.90667 13.8948 5.8C13.8082 5.69333 13.6715 5.64 13.4848 5.64C13.2248 5.64 13.0382 5.715 12.9248 5.865C12.8148 6.015 12.7598 6.23333 12.7598 6.52V8H12.3248V6.275C12.3248 6.135 12.3048 6.01833 12.2648 5.925C12.2248 5.82833 12.1648 5.75667 12.0848 5.71C12.0048 5.66333 11.9015 5.64 11.7748 5.64C11.5948 5.64 11.4532 5.67833 11.3498 5.755C11.2465 5.82833 11.1715 5.93667 11.1248 6.08C11.0815 6.22333 11.0598 6.4 11.0598 6.61V8H10.6198V5.32H10.9748L11.0398 5.685H11.0648C11.1215 5.59167 11.1898 5.515 11.2698 5.455C11.3532 5.39167 11.4448 5.345 11.5448 5.315C11.6448 5.285 11.7482 5.27 11.8548 5.27C12.0615 5.27 12.2332 5.30667 12.3698 5.38C12.5098 5.45333 12.6115 5.56667 12.6748 5.72H12.6998C12.7898 5.56667 12.9115 5.45333 13.0648 5.38C13.2215 5.30667 13.3865 5.27 13.5598 5.27ZM16.5677 5.27C16.8977 5.27 17.1627 5.385 17.3627 5.615C17.566 5.845 17.6677 6.19167 17.6677 6.655C17.6677 6.95833 17.621 7.215 17.5277 7.425C17.4377 7.63167 17.3093 7.78833 17.1427 7.895C16.9793 7.99833 16.786 8.05 16.5627 8.05C16.426 8.05 16.3043 8.03167 16.1977 7.995C16.091 7.95833 15.9993 7.91167 15.9227 7.855C15.8493 7.795 15.786 7.73 15.7327 7.66H15.7027C15.7093 7.71667 15.716 7.78833 15.7227 7.875C15.7293 7.96167 15.7327 8.03667 15.7327 8.1V9.2H15.2927V5.32H15.6527L15.7127 5.685H15.7327C15.786 5.60833 15.8493 5.53833 15.9227 5.475C15.9993 5.41167 16.0893 5.36167 16.1927 5.325C16.2993 5.28833 16.4243 5.27 16.5677 5.27ZM16.4877 5.64C16.3077 5.64 16.1627 5.675 16.0527 5.745C15.9427 5.81167 15.8627 5.91333 15.8127 6.05C15.7627 6.18667 15.736 6.36 15.7327 6.57V6.655C15.7327 6.875 15.756 7.06167 15.8027 7.215C15.8493 7.36833 15.9277 7.485 16.0377 7.565C16.151 7.645 16.3043 7.685 16.4977 7.685C16.661 7.685 16.7943 7.64 16.8977 7.55C17.0043 7.46 17.0827 7.33833 17.1327 7.185C17.186 7.02833 17.2127 6.85 17.2127 6.65C17.2127 6.34333 17.1527 6.09833 17.0327 5.915C16.916 5.73167 16.7343 5.64 16.4877 5.64ZM20.7038 7.19H20.1838V8H19.7588V7.19H18.0488V6.815L19.7288 4.41H20.1838V6.795H20.7038V7.19ZM19.7588 5.67C19.7588 5.58333 19.7588 5.505 19.7588 5.435C19.7622 5.36167 19.7655 5.29333 19.7688 5.23C19.7722 5.16667 19.7738 5.10667 19.7738 5.05C19.7772 4.99 19.7805 4.93333 19.7838 4.88H19.7638C19.7372 4.94333 19.7038 5.01167 19.6638 5.085C19.6238 5.15833 19.5855 5.22 19.5488 5.27L18.4788 6.795H19.7588V5.67Z" fill="white"/>
<path d="M12.3119 25.8771C9.38259 25.8771 7 23.4376 7 20.4385C7 17.4404 9.38259 15 12.3119 15C15.2413 15 17.6239 17.4395 17.6239 20.4385C17.6239 23.4376 15.2404 25.8771 12.3119 25.8771ZM12.3119 16.0097C9.9384 16.0097 8.00753 17.9964 8.00753 20.4394C8.00753 22.8816 9.9384 24.8692 12.3119 24.8692C14.6855 24.8692 16.6164 22.8825 16.6164 20.4394C16.6154 17.9964 14.6846 16.0097 12.3119 16.0097Z" fill="#6972B1"/>
<path d="M14.2018 19.893L11.687 18.4025C11.2625 18.1508 10.7266 18.4569 10.7266 18.9504V21.9304C10.7266 22.4239 11.2634 22.73 11.687 22.4783L14.2018 20.9878C14.6182 20.7415 14.6182 20.1393 14.2018 19.893Z" fill="#6972B1"/>
</svg>
