<svg width="108" height="108" viewBox="0 0 108 108" fill="none" xmlns="http://www.w3.org/2000/svg">
<g clip-path="url(#clip0_4933_216811)">
<path d="M0 0H108V108H0V0Z" fill="#FF6B81"/>
</g>
<path fill-rule="evenodd" clip-rule="evenodd" d="M32.2968 43.6105C33.7485 43.1362 35.6236 44.737 36.4099 47.2272C37.2567 49.7174 36.7123 52.089 35.2607 52.5633C33.809 53.0376 31.9339 51.4368 31.1475 48.9466C30.3007 46.4564 30.8451 44.0848 32.2968 43.6105Z" fill="#F5BE92"/>
<path fill-rule="evenodd" clip-rule="evenodd" d="M74.8818 43.6105C73.4301 43.1362 71.555 44.737 70.7686 47.2272C69.9218 49.7174 70.4662 52.089 71.9179 52.5633C73.3696 53.0376 75.2447 51.4368 76.031 48.9466C76.8173 46.4564 76.3334 44.0848 74.8818 43.6105Z" fill="#F5BE92"/>
<path fill-rule="evenodd" clip-rule="evenodd" d="M67.4433 24.1022C71.4959 24.7544 73.7944 27.4817 74.7622 31.217C77.3026 40.8812 72.0403 61.8698 53.8337 62.1069C44.4582 62.2255 37.6836 59.9132 35.2641 52.4427C32.7842 44.9722 31.8164 32.9956 37.1392 26.2959C43.7928 17.8175 57.9468 17.7582 67.4433 24.1022Z" fill="#252E4B"/>
<path fill-rule="evenodd" clip-rule="evenodd" d="M45.9089 73.376C28.912 80.6686 23.7706 84.5818 21.7745 86.3604C18.6897 89.0878 16.8146 99.4635 15 108.001H53.5907H92C90.1854 99.4635 88.5522 89.0285 85.4674 86.3604C83.4713 84.5818 78.5114 80.7872 61.5145 73.4946L45.9089 73.376Z" fill="white"/>
<path fill-rule="evenodd" clip-rule="evenodd" d="M53.5905 108H73.0068C72.9464 98.8695 73.0673 88.5531 80.6887 82.9206C77.9063 81.2012 73.6722 78.9482 67.3211 76.043C69.922 83.6914 60.486 88.3752 53.0461 88.3752C45.6062 88.3752 37.3195 83.6914 39.9809 76.043C33.5693 78.9482 29.3957 81.2605 26.6133 82.9206C34.2346 88.5531 34.4161 98.8695 34.2951 108H53.5905Z" fill="#5F5659"/>
<path fill-rule="evenodd" clip-rule="evenodd" d="M45.3633 58.7908V71.1824V78.5936C49.8998 83.8704 57.3397 84.0483 61.8762 78.5936V71.1824V58.7908C61.8762 48.8301 45.3633 48.8301 45.3633 58.7908Z" fill="#F5BE92"/>
<path fill-rule="evenodd" clip-rule="evenodd" d="M53.5911 25.5879C25.8275 25.5879 35.8079 61.0432 37.6225 63.6519C39.6186 66.5571 49.115 71.5968 53.5911 71.5968C58.0671 71.5968 67.5636 65.905 69.5597 62.9998C71.3743 60.391 81.3546 25.5879 53.5911 25.5879Z" fill="#F5BE92"/>
<path fill-rule="evenodd" clip-rule="evenodd" d="M52.1383 33.5917C52.0173 32.5837 52.1383 31.6351 52.4407 31.2201C52.7432 30.8051 52.9851 30.6865 52.9851 30.6865L50.2027 28.6113C50.2027 28.6113 50.0817 28.7892 49.9608 29.1449C49.9003 29.3228 49.8398 29.5007 49.7793 29.7378L47.7227 29.3228C47.7227 29.3228 47.7832 29.7971 47.4808 30.5086C47.2388 31.2794 46.392 32.3466 45.4242 33.5324C45.0008 34.1253 44.5774 34.7775 44.275 35.4889C44.0935 35.7854 44.033 36.1411 43.9725 36.4969C43.912 36.7933 43.8516 37.1491 43.8516 37.3862C43.8516 37.9198 43.8516 38.3941 43.912 38.6906C43.9725 38.987 43.9725 39.1649 43.9725 39.1649C43.9725 39.1649 44.033 38.987 44.033 38.6906C44.0935 38.3941 44.2145 37.9791 44.3355 37.5048C44.6984 36.5562 45.5452 35.5482 46.6945 34.7775C47.7227 34.066 48.872 33.2952 49.7793 32.3466C49.9608 32.9988 50.2027 33.651 50.5656 34.2439C51.1705 35.3111 51.8963 36.2004 52.5012 36.7933C53.0456 37.4455 53.469 37.8012 53.469 37.8012C53.469 37.8012 53.2271 37.2676 52.9851 36.4969C52.6222 35.6668 52.3197 34.5996 52.1383 33.5917Z" fill="#252E4B"/>
<path fill-rule="evenodd" clip-rule="evenodd" d="M74.0331 41.717C74.0936 41.5391 74.2146 41.4205 74.275 41.2427C74.396 40.9462 74.5775 40.7091 74.638 40.4719C74.8799 40.0569 75.0009 39.8197 75.0009 39.8197L71.7951 38.4561C71.7951 38.4561 71.7346 38.7525 71.5531 39.2268C71.4926 39.464 71.3717 39.7604 71.3112 40.1162C71.2507 40.294 71.1902 40.4719 71.1297 40.6498C71.0692 40.8276 71.0692 41.0648 71.0087 41.302C70.5853 43.0214 70.2829 45.3337 70.1619 47.646C70.041 49.9583 69.9805 52.2113 69.9805 53.8714C69.9805 55.5908 69.9805 56.7173 69.9805 56.7173C69.9805 56.7173 70.2224 55.5908 70.5249 53.9307C70.8273 52.5077 71.1902 50.6105 71.6741 48.7725C71.7951 49.6618 71.9765 50.4919 72.2185 51.0848C72.3395 51.5591 72.5209 51.9148 72.6419 52.152C72.7629 52.3892 72.8234 52.567 72.8234 52.567C72.8234 52.567 72.8234 52.3892 72.8234 52.152C72.8234 51.8556 72.7629 51.4998 72.7629 51.0255C72.7629 50.1361 73.0048 48.8911 73.2468 47.7646C73.5492 46.5788 73.9121 45.393 74.0936 44.4443C74.2146 43.97 74.275 43.555 74.3355 43.2585C74.396 42.9621 74.396 42.7842 74.396 42.7842H73.4887C73.5492 42.6063 73.6702 42.3692 73.7307 42.1913C73.8516 42.0727 73.9121 41.8949 74.0331 41.717Z" fill="#252E4B"/>
<path fill-rule="evenodd" clip-rule="evenodd" d="M72.5831 36.0238C72.704 35.7274 72.7645 35.4309 72.8855 35.1937C72.946 34.9566 73.0065 34.7194 73.067 34.4823C73.1274 34.0672 73.1879 33.8301 73.1879 33.8301H69.6797C69.6797 33.8301 69.6797 33.9487 69.7402 34.2451C69.7402 34.3637 69.7402 34.5416 69.8007 34.7194C69.8007 34.8973 69.8007 35.1345 69.8007 35.3716C69.7402 36.3795 69.4377 37.7432 69.0143 39.2255C68.5909 40.7077 68.228 42.1899 68.1675 43.3757C68.1675 43.6722 68.107 43.9093 68.1675 44.1465C68.1675 44.3837 68.1675 44.5615 68.228 44.7394C68.2885 45.0951 68.2885 45.273 68.2885 45.273C68.2885 45.273 68.2885 45.0951 68.349 44.7394C68.349 44.5615 68.4095 44.3837 68.4699 44.1465C68.5304 43.9093 68.5909 43.6722 68.7119 43.435C69.0748 42.3678 69.8611 41.1227 70.6475 39.8183C71.3128 38.5733 72.0992 37.2096 72.5831 36.0238Z" fill="#252E4B"/>
<path fill-rule="evenodd" clip-rule="evenodd" d="M39.7377 45.7443C39.6773 45.6257 39.6168 45.5071 39.5563 45.3885C39.4958 45.2699 39.4353 45.0921 39.3748 44.9735C39.2538 44.677 39.1329 44.3213 39.0119 44.0248C38.8909 43.6691 38.7699 43.3134 38.7095 42.8983C38.4675 42.1276 38.3465 41.2975 38.1651 40.4675C37.8626 38.7481 37.6812 37.0879 37.6207 35.7836C37.4997 34.4792 37.4392 33.5898 37.4392 33.5898L34.052 34.242C34.052 34.242 34.3544 35.0721 34.7778 36.3172C34.9593 36.9101 35.2617 37.6216 35.5036 38.3923L33.2656 38.8073C33.2656 38.8073 33.5681 39.8746 34.052 41.5347C34.5359 43.1948 35.0197 45.3885 35.5641 47.6415C36.5924 52.1476 37.5602 56.6536 37.5602 56.6536C37.5602 56.6536 37.4392 52.029 37.2578 47.4044C37.1368 45.3885 37.0763 43.432 36.9553 41.7718C37.1973 42.2462 37.4392 42.7798 37.6812 43.1948C37.9231 43.5505 38.0441 43.9063 38.286 44.262C38.528 44.5585 38.7095 44.8549 38.8909 45.1514C39.0119 45.2699 39.0724 45.4478 39.1934 45.5664C39.3143 45.685 39.3748 45.8035 39.4958 45.9221C39.6773 46.1 39.8587 46.2779 39.9797 46.4557C40.2216 46.7522 40.4031 46.9301 40.4031 46.9301C40.4031 46.9301 40.2821 46.7522 40.1007 46.3964C39.9192 46.1593 39.8587 45.9221 39.7377 45.7443Z" fill="#252E4B"/>
<path fill-rule="evenodd" clip-rule="evenodd" d="M72.7042 49.3038C72.0388 40.1732 67.6233 31.339 53.6508 31.339C39.6178 31.339 35.2627 40.3511 34.5973 49.6596C33.811 38.8095 36.6539 25.5879 53.5903 25.5879C70.5871 25.5879 73.43 38.5724 72.7042 49.3038Z" fill="white"/>
<path fill-rule="evenodd" clip-rule="evenodd" d="M75.4233 26.7156C75.4233 26.7156 74.9999 26.2413 74.274 25.7077C73.5482 25.1741 72.4594 24.4626 71.3102 23.929C70.7053 23.6918 70.1004 23.4547 69.4351 23.3954C68.7697 23.2768 68.1044 23.3361 67.4995 23.5732C67.318 23.6325 67.1971 23.6918 67.0761 23.8104C67.0156 23.2175 66.9551 22.6246 66.8946 21.9724C66.7132 20.8459 66.2898 19.7787 65.8663 19.0672C65.6849 18.7115 65.3824 18.4743 65.2615 18.2964C65.1405 18.1186 65.0195 18 65.0195 18C65.0195 18 65.08 18.1186 65.201 18.3557C65.322 18.5929 65.5034 18.8301 65.6244 19.2451C65.9268 20.0159 66.1083 21.0238 66.0478 22.091C65.9873 23.1582 65.8663 24.1661 65.7454 24.9962C65.6244 25.8263 65.5639 26.3599 65.5639 26.3599H67.318C67.318 26.3599 67.318 26.0634 67.2576 25.5298L67.681 25.7077C67.681 25.7077 67.7414 25.2334 68.2253 24.9369C68.4673 24.759 68.8907 24.6405 69.4351 24.6405C69.919 24.6405 70.5239 24.6997 71.1287 24.8183C72.278 25.1148 73.4272 25.5891 74.274 26.0041C74.8789 26.3599 75.4233 26.7156 75.4233 26.7156Z" fill="#252E4B"/>
<path fill-rule="evenodd" clip-rule="evenodd" d="M78.384 44.4426C78.3236 44.3833 78.2631 44.324 78.1421 44.2055C78.0816 44.0869 78.0211 44.0276 77.9001 43.909C77.7187 43.6719 77.5372 43.4347 77.4163 43.1382C77.0533 42.6046 76.8114 41.8339 76.5089 41.0631C76.267 40.2923 76.0855 39.403 75.9041 38.5729C75.7226 37.6836 75.5412 36.7942 75.2992 35.9642C75.0573 35.1341 74.7548 34.3634 74.3919 33.7112C74.3314 33.5333 74.2104 33.4147 74.15 33.2368C74.029 33.1183 73.9685 32.9404 73.8475 32.8218C73.6661 32.5847 73.4846 32.3475 73.3636 32.2289C73.0612 31.9325 72.8797 31.6953 72.8797 31.6953L71.7305 32.9997C71.7305 32.9997 71.8514 33.1183 72.1539 33.3554C72.2749 33.474 72.4563 33.5926 72.5773 33.7705C72.6378 33.889 72.7587 33.9483 72.8192 34.0669C72.8797 34.1855 73.0007 34.3041 73.0612 34.4226C73.4241 34.897 73.787 35.5491 74.0895 36.3199C74.3919 37.0907 74.6943 37.9207 74.9968 38.7508C75.2992 39.5809 75.6016 40.4702 75.9041 41.241C76.267 42.0117 76.6299 42.7232 77.0533 43.2568C77.2348 43.5533 77.4767 43.7904 77.6582 43.9683C77.7792 44.0869 77.8397 44.1462 77.9001 44.2648C78.2026 44.3833 78.2631 44.4426 78.384 44.4426C78.626 44.7391 78.8075 44.8576 78.8075 44.8576C78.8075 44.8576 78.6865 44.7391 78.384 44.4426Z" fill="#252E4B"/>
<path fill-rule="evenodd" clip-rule="evenodd" d="M33.9898 32.3472C33.9898 32.5251 34.0503 32.8215 33.9898 33.2366C33.9898 33.4144 33.9293 33.5923 33.9293 33.8295C33.8688 34.0666 33.8083 34.2445 33.7478 34.4817C33.6269 34.956 33.4454 35.4303 33.2639 35.9639C32.901 36.9718 32.4776 37.9798 32.1147 38.6912C31.8123 39.462 31.5703 39.9363 31.5703 39.9363C31.5703 39.9363 31.8727 39.462 32.2962 38.8098C32.7801 38.1576 33.3849 37.2683 33.9898 36.3196C34.2317 35.8453 34.5947 35.371 34.7761 34.8967C34.8971 34.6595 35.0181 34.4224 35.0786 34.1852C35.139 33.9481 35.26 33.7109 35.3205 33.533C35.502 33.118 35.502 32.7623 35.5625 32.4658C35.6229 32.1694 35.6229 32.0508 35.6229 32.0508H33.8688C33.9898 32.0508 33.9898 32.1694 33.9898 32.3472Z" fill="#252E4B"/>
<path fill-rule="evenodd" clip-rule="evenodd" d="M38.2256 26.0637C37.9836 26.1822 37.6207 26.3008 37.2578 26.4787C36.8344 26.5973 36.411 26.7751 35.9875 26.7159C35.5036 26.7159 35.0197 26.4787 34.5963 26.1822C34.1729 25.8265 33.931 25.3522 33.81 24.8779C33.689 24.3443 33.81 23.8699 34.052 23.4549C34.4754 22.6841 35.1407 22.3877 35.0802 22.3877C35.0802 22.3877 34.4754 22.5656 33.81 23.3363C33.5076 23.6921 33.2656 24.285 33.2656 24.9372C33.2656 25.5893 33.5076 26.2415 33.931 26.8344C34.3544 27.368 35.0197 27.7831 35.6851 27.9609C36.411 28.1388 37.0763 28.0202 37.5602 27.9609C38.0441 27.9016 38.4675 27.7831 38.7095 27.7238C38.9514 27.6645 39.1329 27.6052 39.1329 27.6052L38.5885 26.0044C38.649 25.8858 38.4675 25.9451 38.2256 26.0637Z" fill="#252E4B"/>
<defs>
<clipPath id="clip0_4933_216811">
<rect width="108" height="108" fill="white"/>
</clipPath>
</defs>
</svg>
